<?xml version="1.0" encoding="UTF-8" standalone="no"?>
<!DOCTYPE svg PUBLIC "-//W3C//DTD SVG 1.1//EN" "http://www.w3.org/Graphics/SVG/1.1/DTD/svg11.dtd">
<svg width="100%" height="100%" viewBox="0 0 90 90" version="1.1" xmlns="http://www.w3.org/2000/svg" xmlns:xlink="http://www.w3.org/1999/xlink" xml:space="preserve" style="fill-rule:evenodd;clip-rule:evenodd;stroke-linejoin:round;stroke-miterlimit:1.41421;">
    <g transform="matrix(1,0,0,1,-0.0001979,-0.0028591)">
        <g transform="matrix(4.4121,0,0,4.4121,-26.9092,-115.025)">
            <circle cx="16.298" cy="36.27" r="10.199" style="fill:white;"/>
        </g>
    </g>
    <g transform="matrix(1,0,0,1,-0.0001979,-0.0028591)">
        <g transform="matrix(0.168918,0,0,0.168918,11.345,11.234)">
            <path d="M92.949,126.717L73.081,126.726L109.927,92.162L146.867,126.695L127.257,126.703L127.257,192.226C127.257,200.84 130.679,209.101 136.77,215.193C142.861,221.284 151.123,224.706 159.737,224.706C177.676,224.706 192.217,210.164 192.217,192.226C192.217,163.302 192.217,125.529 192.217,125.529C192.217,125.529 225.625,125.529 258.975,125.529C276.588,125.529 293.48,132.526 305.935,144.98C318.39,157.435 325.387,174.327 325.387,191.941L325.387,191.942C325.387,228.62 295.653,258.354 258.975,258.354C253.415,258.354 248.178,258.354 243.596,258.354C239.029,258.354 234.648,260.168 231.419,263.398C228.189,266.627 226.374,271.008 226.374,275.576C226.374,289.795 226.374,307.651 226.374,307.651L191.879,307.651L191.905,259.331C205.396,252.205 218.616,239.834 225.638,224.62C225.638,224.62 241.395,224.62 256.921,224.62C265.856,224.62 274.421,221.832 280.709,215.485C286.997,209.137 290.486,200.539 290.402,191.605C290.402,191.604 290.402,191.603 290.402,191.603C290.232,173.704 275.675,159.284 257.775,159.284C241.826,159.284 225.96,159.284 225.96,159.284C225.96,159.284 225.875,174.534 225.772,193.068C225.552,232.339 198.219,258.354 160.121,258.354C159.843,258.354 159.566,258.354 159.288,258.354C134.318,258.354 124.864,251.712 112.551,239.4C100.239,227.088 92.949,210.113 92.949,192.702L92.949,126.717Z" style="fill:rgb(86,67,94);"/>
        </g>
    </g>
</svg>
