<?xml version="1.0" encoding="UTF-8" standalone="no"?>
<!DOCTYPE svg PUBLIC "-//W3C//DTD SVG 1.1//EN" "http://www.w3.org/Graphics/SVG/1.1/DTD/svg11.dtd">
<svg width="100%" height="100%" viewBox="0 0 90 91" version="1.1" xmlns="http://www.w3.org/2000/svg" xmlns:xlink="http://www.w3.org/1999/xlink" xml:space="preserve" style="fill-rule:evenodd;clip-rule:evenodd;stroke-linejoin:round;stroke-miterlimit:1.41421;">
    <g transform="matrix(1,0,0,1,-0.0051375,-0.00126592)">
        <g transform="matrix(1,0,0,1,-5,-5)">
            <g transform="matrix(15.3875,0,0,8.57032,-618.204,-191.739)">
                <ellipse cx="43.425" cy="28.207" rx="2.924" ry="5.251" style="fill:rgb(112,255,147);"/>
            </g>
        </g>
        <g transform="matrix(1,0,0,1,-5,-5)">
            <g transform="matrix(1.39742,0,0,1.39742,-10.195,-9.62422)">
                <g transform="matrix(0.214639,0,0,0.214639,25.0162,13.8562)">
                    <path d="M50.106,242.268C31.228,242.268 15.394,227.477 14.06,208.606C14.047,208.36 14.037,208.106 14.018,207.856C13.71,201.797 13.305,190.001 14.039,176.706C14.533,168.034 14.752,153.446 14.759,152.923C14.76,152.884 14.76,152.855 14.76,152.816C14.889,143.873 18.325,135.682 23.887,129.411C21.133,119.806 20.239,108.354 21.956,94.867L22.217,92.753C23.193,84.765 24.647,72.927 30.662,61.536C39.756,44.336 56.423,34.464 76.385,34.464C77.533,34.464 78.725,34.496 79.939,34.567C81.727,34.666 83.683,34.879 85.77,35.248C92.151,29.619 100.532,26.193 109.684,26.193C109.801,26.193 109.933,26.193 110.052,26.193C129.85,26.439 145.888,42.722 145.788,62.505C145.788,62.638 145.787,62.776 145.785,62.908C145.779,63.347 143.973,113.909 143.428,117.504C143.388,117.754 143.347,118 143.305,118.246C142.828,120.935 142.051,123.507 141.032,125.94C149.771,136.213 154.493,148.978 154.65,163.398C154.839,181.535 146.541,199.148 131.871,211.712C119.282,222.511 103.304,228.446 86.901,228.446L86.898,228.446C84.239,228.446 81.583,228.3 78.94,227.985C78.401,228.692 77.828,229.391 77.235,230.061C70.844,237.29 62.009,241.604 52.367,242.196C51.725,242.241 50.908,242.268 50.106,242.268Z" style="fill:rgb(247,248,249);fill-rule:nonzero;"/>
                </g>
                <g transform="matrix(0.214639,0,0,0.214639,25.0162,13.8562)">
                    <path d="M77.193,126.732C68.091,125.31 63.273,119.25 65.666,100.41L65.955,98.135C67.975,81.749 69.709,78.165 77.523,78.568C79.86,78.715 82.515,80.162 85.186,82.343C87.594,85.181 93.107,88.866 96.142,96.191C98.367,101.527 99.125,105.006 99.406,108.756C99.432,108.876 99.935,113.354 99.935,113.354L99.94,113.351C100.54,116.485 103.002,119.07 106.328,119.67C110.624,120.439 114.757,117.579 115.534,113.27C115.6,112.778 117.56,63.196 117.572,62.374C117.597,58.009 114.075,54.456 109.707,54.407C105.304,54.399 101.737,57.928 101.718,62.316C101.718,62.408 101.68,69.213 101.557,76.126C95.341,69.33 87.318,63.243 78.397,62.74C54.386,61.422 51.78,83.474 50.221,96.2L49.942,98.433C46.75,123.501 55.106,139.347 74.761,142.417C96.144,145.786 110.423,150.702 110.558,163.858C110.613,168.94 107.945,174.184 103.222,178.233C97.595,183.059 89.984,185.215 82.898,184.022C80.695,183.667 78.598,183.11 76.634,182.409C73.794,180.864 66.755,176.587 63.177,171.626C60.153,167.442 59.125,160.862 58.79,156.704C58.831,154.85 58.852,153.61 58.86,153.442C58.909,149.083 55.418,145.495 51.036,145.411C46.659,145.331 43.032,148.829 42.975,153.229C42.975,153.379 42.737,168.895 42.217,178.254C41.387,193.311 42.195,206.086 42.217,206.629C42.521,211.006 46.275,214.33 50.649,214.039C55.041,213.766 58.334,209.986 58.066,205.627C58.066,205.51 57.664,199.373 57.721,190.787C63.516,194.517 71.116,198.135 80.286,199.683C92.113,201.66 104.23,198.247 113.526,190.281C121.825,183.181 126.538,173.48 126.437,163.693C126.117,134.392 93.1,129.235 77.193,126.732Z" style="fill:rgb(112,255,147);fill-rule:nonzero;"/>
                </g>
            </g>
        </g>
    </g>
</svg>
