<?xml version="1.0" standalone="no"?>
<!DOCTYPE svg PUBLIC "-//W3C//DTD SVG 1.1//EN" "http://www.w3.org/Graphics/SVG/1.1/DTD/svg11.dtd">
<svg width="100%" height="100%" viewBox="0 0 401 41" version="1.1" xmlns="http://www.w3.org/2000/svg" xmlns:xlink="http://www.w3.org/1999/xlink" xml:space="preserve" style="fill-rule:evenodd;clip-rule:evenodd;stroke-linecap:round;stroke-miterlimit:1.41421;">
    <g transform="matrix(1,0,0,1,-0.000184758,0.00269181)">
        <g transform="matrix(1,0,0,1,-41.7042,-3.69021)">
            <g transform="matrix(1.28576,-0.344519,0.344519,1.28576,-51.2302,69.0989)">
                <path d="M197.176,2.733L198.028,5.356L200.785,5.356L198.555,6.976L199.407,9.599L197.176,7.978L194.945,9.599L195.797,6.976L193.567,5.356L196.324,5.356L197.176,2.733Z" style="fill:rgb(229,72,72);"/>
            </g>
        </g>
        <g transform="matrix(1,0,0,1,-41.7042,-3.69021)">
            <g transform="matrix(1,0,0,1,166.988,-37.4901)">
                <g transform="matrix(0.332147,0,0,0.332147,54.9927,-8.63278)">
                    <path d="M173.827,221.022L193.942,241.136L173.827,261.251L153.712,241.136L173.827,221.022Z" style="fill:rgb(229,72,72);"/>
                </g>
                <g transform="matrix(0.502528,0,0,0.332147,-8.57251,0.264073)">
                    <rect x="96.226" y="129.602" width="120.594" height="9.907" style="fill:none;stroke-width:1.41px;stroke:rgb(25,25,25);"/>
                </g>
                <g transform="matrix(0.307859,0,0,0.332147,32.0655,33.4931)">
                    <rect x="96.226" y="129.602" width="120.594" height="9.907" style="fill:none;stroke-width:1.87px;stroke:rgb(25,25,25);"/>
                </g>
                <g transform="matrix(0.680108,0,0,0.629995,-31.5336,-36.7717)">
                    <rect x="70.813" y="128.805" width="2.063" height="17.186" style="fill:none;stroke-width:0.92px;stroke:rgb(25,25,25);"/>
                </g>
                <g transform="matrix(1.92659e-16,0.680108,-0.629995,1.78463e-16,196.435,-6.46058)">
                    <rect x="70.813" y="128.805" width="2.063" height="17.186" style="fill:none;stroke-width:0.92px;stroke:rgb(25,25,25);"/>
                </g>
                <g transform="matrix(1.92659e-16,0.680108,-0.629995,1.78463e-16,140.256,27.8501)">
                    <rect x="70.813" y="128.805" width="2.063" height="17.186" style="fill:none;stroke-width:0.92px;stroke:rgb(25,25,25);"/>
                </g>
                <g transform="matrix(0.680108,0,0,0.629995,-28.1135,-36.7717)">
                    <rect x="70.813" y="128.805" width="2.063" height="17.186" style="fill:none;stroke-width:0.92px;stroke:rgb(25,25,25);"/>
                </g>
                <g transform="matrix(1.92659e-16,0.680108,-0.629995,1.78463e-16,196.435,-3.0406)">
                    <rect x="70.813" y="128.805" width="2.063" height="17.186" style="fill:none;stroke-width:0.92px;stroke:rgb(25,25,25);"/>
                </g>
                <g transform="matrix(1.92659e-16,0.680108,-0.629995,1.78463e-16,140.256,31.2701)">
                    <rect x="70.813" y="128.805" width="2.063" height="17.186" style="fill:none;stroke-width:0.92px;stroke:rgb(25,25,25);"/>
                </g>
                <g transform="matrix(0.226743,0.13091,-0.166074,0.287648,42.1919,-2.96475)">
                    <path d="M95.705,212.444L111.16,233.374L80.25,233.374L95.705,212.444Z" style="fill:rgb(229,72,72);"/>
                </g>
                <g transform="matrix(0.332147,0,0,0.332147,-12.23,3.94727)">
                    <circle cx="265.29" cy="155.369" r="12.518" style="fill:rgb(229,72,72);"/>
                </g>
                <g transform="matrix(1,0,0,1,24.6962,73.7693)">
                    <path d="M1.547,-24.685L1.547,0L14.165,0L14.165,-0.928L2.475,-0.928L2.475,-11.93L11.879,-11.93L11.879,-12.841L2.475,-12.841L2.475,-23.757L14.165,-23.757L14.165,-24.685L1.547,-24.685Z" style="fill:rgb(25,25,25);fill-rule:nonzero;"/>
                    <path d="M15.471,-24.685L15.471,-23.757L23.07,-23.757L23.07,0L23.998,0L23.998,-23.757L31.596,-23.757L31.596,-24.685L15.471,-24.685Z" style="fill:rgb(25,25,25);fill-rule:nonzero;"/>
                    <path d="M49.474,-24.685L49.474,-12.841L34.725,-12.841L34.725,-24.685L33.796,-24.685L33.796,0L34.725,0L34.725,-11.93L49.474,-11.93L49.474,0L50.385,0L50.385,-24.685L49.474,-24.685Z" style="fill:rgb(25,25,25);fill-rule:nonzero;"/>
                    <path d="M67.851,-24.685L56.952,-7.461L56.866,-7.461L56.866,-7.306L52.242,0L53.342,0L57.468,-6.532L68.659,-6.532L68.659,0L69.57,0L69.57,-24.685L67.851,-24.685ZM68.659,-24.221L68.659,-7.461L58.052,-7.461L68.659,-24.221Z" style="fill:rgb(25,25,25);fill-rule:nonzero;"/>
                    <path d="M88.617,-24.685L88.617,-0.911L74.4,-24.685L72.956,-24.685L72.956,0L73.884,0L73.884,-23.757L88.084,0L89.545,0L89.545,-24.685L88.617,-24.685Z" style="fill:rgb(25,25,25);fill-rule:nonzero;"/>
                </g>
            </g>
        </g>
        <g transform="matrix(1,0,0,1,-41.7042,-3.69021)">
            <g>
                <g transform="matrix(1,0,0,1,220.013,0)">
                    <path d="M176.909,22.614C176.909,22.605 176.906,22.597 176.9,22.591C176.894,22.585 176.886,22.582 176.877,22.582C174.972,22.582 88.634,22.582 86.729,22.582C86.72,22.582 86.712,22.585 86.706,22.591C86.7,22.597 86.697,22.605 86.697,22.614C86.697,22.615 86.697,22.615 86.697,22.616C86.697,22.624 86.7,22.632 86.706,22.638C86.712,22.644 86.72,22.648 86.729,22.648C88.634,22.648 174.972,22.648 176.877,22.648C176.886,22.648 176.894,22.644 176.9,22.638C176.906,22.632 176.909,22.624 176.909,22.616C176.909,22.615 176.909,22.615 176.909,22.614Z" style="fill:none;stroke-width:0.6px;stroke:rgb(25,25,25);"/>
                </g>
                <g transform="matrix(1,0,0,1,264.421,0)">
                    <path d="M176.909,22.614C176.909,22.605 176.906,22.597 176.9,22.591C176.894,22.585 176.886,22.582 176.877,22.582C174.972,22.582 88.634,22.582 86.729,22.582C86.72,22.582 86.712,22.585 86.706,22.591C86.7,22.597 86.697,22.605 86.697,22.614C86.697,22.615 86.697,22.615 86.697,22.616C86.697,22.624 86.7,22.632 86.706,22.638C86.712,22.644 86.72,22.648 86.729,22.648C88.634,22.648 174.972,22.648 176.877,22.648C176.886,22.648 176.894,22.644 176.9,22.638C176.906,22.632 176.909,22.624 176.909,22.616C176.909,22.615 176.909,22.615 176.909,22.614Z" style="fill:none;stroke-width:0.6px;stroke:rgb(25,25,25);"/>
                </g>
            </g>
        </g>
        <g transform="matrix(1,0,0,1,-41.7042,-3.69021)">
            <g transform="matrix(1,0,0,1,-264.486,0)">
                <g transform="matrix(1,0,0,1,220.013,0)">
                    <path d="M176.909,22.614C176.909,22.605 176.906,22.597 176.9,22.591C176.894,22.585 176.886,22.582 176.877,22.582C174.972,22.582 88.634,22.582 86.729,22.582C86.72,22.582 86.712,22.585 86.706,22.591C86.7,22.597 86.697,22.605 86.697,22.614C86.697,22.615 86.697,22.615 86.697,22.616C86.697,22.624 86.7,22.632 86.706,22.638C86.712,22.644 86.72,22.648 86.729,22.648C88.634,22.648 174.972,22.648 176.877,22.648C176.886,22.648 176.894,22.644 176.9,22.638C176.906,22.632 176.909,22.624 176.909,22.616C176.909,22.615 176.909,22.615 176.909,22.614Z" style="fill:none;stroke-width:0.6px;stroke:rgb(25,25,25);"/>
                </g>
                <g transform="matrix(1,0,0,1,264.421,0)">
                    <path d="M176.909,22.614C176.909,22.605 176.906,22.597 176.9,22.591C176.894,22.585 176.886,22.582 176.877,22.582C174.972,22.582 88.634,22.582 86.729,22.582C86.72,22.582 86.712,22.585 86.706,22.591C86.7,22.597 86.697,22.605 86.697,22.614C86.697,22.615 86.697,22.615 86.697,22.616C86.697,22.624 86.7,22.632 86.706,22.638C86.712,22.644 86.72,22.648 86.729,22.648C88.634,22.648 174.972,22.648 176.877,22.648C176.886,22.648 176.894,22.644 176.9,22.638C176.906,22.632 176.909,22.624 176.909,22.616C176.909,22.615 176.909,22.615 176.909,22.614Z" style="fill:none;stroke-width:0.6px;stroke:rgb(25,25,25);"/>
                </g>
            </g>
        </g>
    </g>
</svg>
