<?xml version="1.0" encoding="UTF-8" standalone="no"?>
<!DOCTYPE svg PUBLIC "-//W3C//DTD SVG 1.1//EN" "http://www.w3.org/Graphics/SVG/1.1/DTD/svg11.dtd">
<svg width="100%" height="100%" viewBox="0 0 213 39" version="1.1" xmlns="http://www.w3.org/2000/svg" xmlns:xlink="http://www.w3.org/1999/xlink" xml:space="preserve" style="fill-rule:evenodd;clip-rule:evenodd;stroke-linejoin:round;stroke-miterlimit:1.41421;">
    <g transform="matrix(1,0,0,1,-133.873,-160.85)">
        <g transform="matrix(1,0,0,1,83.2751,110.739)">
            <g transform="matrix(0.889939,0,0,0.889939,8.7732,-39.0806)">
                <path d="M103.985,123.831C104.888,114.188 99.995,109.343 92.158,109.343C84.557,109.343 79.712,114.473 79.712,121.598C79.712,129.104 84.51,134.091 92.585,134.091C96.148,134.091 100.185,132.856 102.655,130.291L98.95,126.634C97.62,128.011 94.818,128.819 92.68,128.819C88.595,128.819 86.077,126.729 85.697,123.831L103.985,123.831ZM85.792,119.033C86.647,115.993 89.212,114.473 92.348,114.473C95.673,114.473 98.048,115.993 98.428,119.033L85.792,119.033Z" style="fill:rgb(112,255,147);fill-rule:nonzero;"/>
                <path d="M118.284,117.988L113.676,110.055L106.741,110.055L106.741,110.245L114.436,121.598L106.266,133.331L106.266,133.474L113.201,133.474L118.284,125.636L123.366,133.474L130.302,133.474L130.302,133.331L122.131,121.598L129.826,110.245L129.826,110.055L122.891,110.055L118.284,117.988Z" style="fill:rgb(112,255,147);fill-rule:nonzero;"/>
                <path d="M151.772,112.478C149.065,110.103 146.31,109.39 142.652,109.39C138.377,109.39 132.772,111.291 132.772,116.706C132.772,122.026 138.044,123.641 142.462,123.974C145.787,124.164 147.117,124.829 147.117,126.444C147.117,128.154 145.075,129.294 142.889,129.246C140.277,129.199 136.477,127.821 134.814,125.969L131.964,130.101C135.384,133.664 139.089,134.281 142.794,134.281C149.492,134.281 152.865,130.719 152.865,126.586C152.865,120.363 147.26,119.366 142.842,119.081C139.849,118.891 138.472,118.036 138.472,116.516C138.472,115.043 139.992,114.188 142.747,114.188C144.98,114.188 146.88,114.711 148.542,116.278L151.772,112.478Z" style="fill:rgb(112,255,147);fill-rule:nonzero;"/>
                <path d="M169.538,128.439C165.595,128.439 162.888,125.446 162.888,121.788C162.888,118.131 165.358,115.138 169.538,115.138C173.718,115.138 176.188,118.131 176.188,121.788C176.188,125.446 173.481,128.439 169.538,128.439ZM162.365,143.259L162.365,130.719C164.028,133.284 167.685,134.044 170.156,134.044C177.661,134.044 181.984,128.629 181.984,121.788C181.984,114.901 177.186,109.533 169.966,109.533C167.305,109.533 164.17,110.673 162.365,113.286L161.985,110.055L156.57,110.055L156.57,143.259L162.365,143.259Z" style="fill:rgb(112,255,147);fill-rule:nonzero;"/>
                <path d="M186.259,100.223L186.259,133.474L192.054,133.474L192.054,121.503C192.054,117.988 194.429,115.091 197.849,115.091C200.937,115.091 203.169,116.896 203.169,121.171L203.169,133.474L208.965,133.474L208.965,121.123C208.965,114.236 206.019,109.723 199.369,109.723C196.709,109.723 194.144,110.531 192.054,113.238L192.054,100.223L186.259,100.223Z" style="fill:rgb(112,255,147);fill-rule:nonzero;"/>
                <path d="M237.086,123.831C237.988,114.188 233.095,109.343 225.258,109.343C217.657,109.343 212.812,114.473 212.812,121.598C212.812,129.104 217.61,134.091 225.685,134.091C229.248,134.091 233.285,132.856 235.756,130.291L232.05,126.634C230.72,128.011 227.918,128.819 225.78,128.819C221.695,128.819 219.177,126.729 218.797,123.831L237.086,123.831ZM218.892,119.033C219.747,115.993 222.313,114.473 225.448,114.473C228.773,114.473 231.148,115.993 231.528,119.033L218.892,119.033Z" style="fill:rgb(112,255,147);fill-rule:nonzero;"/>
                <path d="M241.551,110.055L241.551,133.474L247.346,133.474L247.346,121.123C247.346,116.801 250.149,115.186 253.189,115.186C255.089,115.186 256.181,115.708 257.369,116.706L259.982,111.671C258.699,110.388 256.371,109.438 253.949,109.438C251.574,109.438 249.151,109.865 247.346,112.763L246.919,110.055L241.551,110.055Z" style="fill:rgb(112,255,147);fill-rule:nonzero;"/>
                <path d="M285.395,123.831C286.298,114.188 281.405,109.343 273.567,109.343C265.967,109.343 261.122,114.473 261.122,121.598C261.122,129.104 265.919,134.091 273.995,134.091C277.557,134.091 281.595,132.856 284.065,130.291L280.36,126.634C279.03,128.011 276.227,128.819 274.09,128.819C270.004,128.819 267.487,126.729 267.107,123.831L285.395,123.831ZM267.202,119.033C268.057,115.993 270.622,114.473 273.757,114.473C277.082,114.473 279.457,115.993 279.837,119.033L267.202,119.033Z" style="fill:rgb(112,255,147);fill-rule:nonzero;"/>
            </g>
            <g transform="matrix(0.45009,0,0,0.45009,47.8709,-9.74116)">
                <path d="M23.193,132.979C13.712,132.979 6.058,140.616 6.058,150.076L6.058,200.521L40.291,200.521L40.291,150.076C40.291,140.616 32.675,132.979 23.193,132.979ZM64.842,200.521L42.777,200.521L42.777,165.864C55.998,167.068 66.344,178.167 66.344,191.703C66.344,194.796 65.834,197.77 64.842,200.521Z" style="fill:rgb(112,255,147);"/>
            </g>
        </g>
    </g>
</svg>
