<?xml version="1.0" encoding="UTF-8" standalone="no"?><!DOCTYPE svg PUBLIC "-//W3C//DTD SVG 1.1//EN" "http://www.w3.org/Graphics/SVG/1.1/DTD/svg11.dtd"><svg width="100%" height="100%" viewBox="0 0 800 600" version="1.1" xmlns="http://www.w3.org/2000/svg" xmlns:xlink="http://www.w3.org/1999/xlink" xml:space="preserve" style="fill-rule:evenodd;clip-rule:evenodd;stroke-linejoin:round;stroke-miterlimit:1.41421;"><rect x="0" y="0" width="800" height="600" style="fill:#36393e;"/><path d="M248.093,325.214l-9.073,-0.009l-30.745,-69.32l-22.309,50.9l39.809,0.007l3.386,7.494l-46.289,-0.016l-4.931,10.799l-9.891,0.027l36.168,-80.731l8.342,0l35.533,80.849Zm153.048,-0.121l-8.157,0l-0.012,-80.705l8.761,0l50.258,66.58l-0.069,-66.558l8.203,-0.007l0.018,80.685l-8.517,0.096l-50.504,-67.622l0.019,67.531Zm195.96,0.01l-8.858,0l-0.03,-19.68l-34.875,-61.03l10.111,0l29.123,50.955l29.637,-50.969l9.741,0.05l-34.792,61.015l-0.057,19.659l0,0Zm-69.838,-0.01l-8.264,0l0,-73.27l-21.799,0l0,-7.411l51.078,0l-0.004,7.415l-21.044,0.051l0.033,73.215Zm-44.053,0l-8.602,0l0,-80.705l8.581,0l0.021,80.705Zm-104.681,0l-9.241,0l0.641,-80.705l8.6,0l0,80.705Zm-81.057,-73.201l-35.293,0l0,29.077l20.288,0l0.019,7.56l-20.271,-0.017l-0.086,36.581l-8.09,0l-0.074,-80.705l43.507,0l0,7.504Zm22.569,73.201l-7.726,0l-0.005,-80.705l43.371,0l0,7.471l-35.642,-0.01l0,29.12l20.06,0l0,7.492l-20.058,0l0,36.632Zm-3.004,-119.747l-15.644,-27.121l20.766,-35.833l16.842,-8.825l30.334,-52.285l-6.429,-10.384l14.962,-25.479l31.891,0.014l2.336,4.375l8.922,0.017l77.59,134.315l-17.028,28.476l-67.009,-0.04l6.659,11.46l-4.292,-0.005l-6.467,-11.434l-83.904,0.083l-4.031,-7.334l-5.498,0l0,0Zm125.69,-32.079l-46.055,-80.004l-52.316,90.192l48.92,-0.164l-6.343,-10.103l55.794,0.079Z" style="fill:#fff;"/><g><path d="M150.918,500.08l-25.136,-56.107l-4.724,0l-25.136,56.107l4.643,0l6.084,-13.77l33.462,0l6.164,13.77l4.643,0Zm-42.588,-17.763l15.05,-34.173l15.05,34.173l-30.1,0Z" style="fill:#fff;fill-rule:nonzero;"/><path d="M162.841,500.08l0,-35.784l13.049,0l0,-3.432l-13.049,0l0,-3.526c0,-6.89 2.882,-9.934 7.845,-9.934c2.402,0 3.922,0.721 6.084,2.003l1.921,-2.881c-2.241,-1.676 -4.883,-2.714 -7.845,-2.714c-8.723,0 -11.837,5.675 -11.837,13.526l0,3.526l-8.086,0l0,3.432l8.086,0l0,35.784l3.832,0Z" style="fill:#fff;fill-rule:nonzero;"/><path d="M193.021,460.543l0,-3.202c0,-12.408 12.255,-11.767 18.096,-7.365l1.757,-2.962c-9.2,-7.364 -23.686,-3.522 -23.686,10.327l0,3.202l-8.084,0l0,3.433l8.084,0l0,36.104l3.833,0l0,-36.104l16.021,0l0,36.104l3.912,0l0,-39.537l-19.933,0l0,0Z" style="fill:#fff;fill-rule:nonzero;"/><path d="M223.531,460.543l0,39.537l3.913,0l0,-22.01c0,-8.17 5.685,-14.334 13.853,-14.415c8.569,-0.08 14.095,4.723 14.095,13.689l0,22.736l3.913,0l0,-22.816c0,-10.967 -7.277,-17.441 -17.847,-17.441c-5.526,0.079 -11.051,2.315 -14.095,7.754l0,-7.034l-3.832,0l0,0Z" style="fill:#fff;fill-rule:nonzero;"/><path d="M273.476,460.384l0,39.696l-3.916,0l0,-39.696l3.916,0Zm-5.035,-12.729c0,4.162 6.314,4.162 6.314,0c0,-4.163 -6.314,-4.163 -6.314,0Z" style="fill:#fff;fill-rule:nonzero;"/><path d="M289.895,449.016l0,11.527l-8.406,0l0,3.272l8.406,0l0,24.103c0,7.768 2.715,12.722 11.118,12.722c2.48,0 4.962,-0.799 7.444,-1.996l-1.361,-3.198c-2.002,0.96 -4.163,1.601 -6.083,1.601c-6.165,0 -7.285,-3.763 -7.285,-9.129l0,-24.103l13.448,0l0,-3.272l-13.448,0l0,-11.928l-3.833,0.401l0,0Z" style="fill:#fff;fill-rule:nonzero;"/><path d="M346.647,460.543l-9.926,23.291l-4.563,11.526l-4.644,-11.445l-9.206,-23.372l-4.243,0l15.851,39.059l-7.285,16.968l4.163,0l24.096,-56.027l-4.243,0l0,0Z" style="fill:#fff;fill-rule:nonzero;"/><path d="M399.801,443.973c-6.326,0 -12.652,0 -18.967,0l0,56.107c6.315,0 12.641,0 18.967,0c19.618,0 28.735,-14.419 28.415,-28.696c-0.319,-13.795 -9.438,-27.411 -28.415,-27.411Zm0,4.072c16.175,0 23.862,11.63 24.102,23.339c0.24,12.031 -7.447,24.542 -24.102,24.542l-14.653,0l0,-47.881l14.653,0Z" style="fill:#fff;fill-rule:nonzero;"/><path d="M456.8,500.64c6.324,0 13.209,-2.555 17.051,-7.598l-2.802,-2.243c-2.962,3.925 -9.046,6.008 -14.249,6.008c-8.166,0 -15.29,-5.367 -16.09,-14.66l35.622,0c1.521,-15.448 -8.405,-22.245 -19.532,-22.245c-11.128,0 -20.094,8.56 -20.094,20.41c0,12.57 8.966,20.328 20.094,20.328l0,0Zm-16.09,-21.925c0.879,-9.692 7.924,-15.22 16.09,-15.22c9.526,0 15.931,5.447 16.01,15.22l-32.1,0Z" style="fill:#fff;fill-rule:nonzero;"/><path d="M516.038,465.177c-3.917,-3.677 -8.963,-5.275 -14.729,-5.275c-8.008,-0.079 -15.766,3.274 -15.685,11.04c0.079,7.928 7.677,9.369 15.364,10.65c6.488,1.041 13.054,2.162 12.894,7.848c-0.24,6.246 -7.527,7.528 -12.333,7.528c-5.285,0 -11.212,-2.003 -14.489,-6.728l-2.877,2.563c3.437,5.282 10.319,7.916 17.286,7.916c6.968,0 16.007,-2.315 16.246,-11.039c0.4,-9.208 -9.278,-10.41 -16.326,-11.611c-4.966,-0.881 -11.853,-1.922 -12.013,-7.207c-0.159,-5.045 5.767,-7.367 11.933,-7.287c4.405,0 8.329,0.641 12.333,4.164l2.396,-2.562l0,0Z" style="fill:#fff;fill-rule:nonzero;"/><path d="M530.365,460.384l0,39.696l-3.916,0l0,-39.696l3.916,0Zm-5.035,-12.729c0,4.162 6.314,4.162 6.314,0c0,-4.163 -6.314,-4.163 -6.314,0Z" style="fill:#fff;fill-rule:nonzero;"/><path d="M569.518,463.416c-3.043,-2.156 -7.208,-3.593 -11.212,-3.593c-10.25,0 -18.566,6.956 -18.566,19.288c0,10.57 7.115,19.127 18.566,19.127c7.368,0 14.975,3.363 14.975,11.853c0,8.409 -7.046,11.932 -14.975,11.932c-7.928,0 -14.814,-3.844 -14.814,-11.932l-3.913,0c0,10.011 8.237,15.765 18.727,15.765c10.491,0 18.808,-5.113 18.808,-15.765c0,-6.807 -3.833,-11.693 -10.8,-14.169c6.567,-2.958 10.64,-9.924 10.64,-16.811c0,-6.406 -2.076,-10.411 -4.874,-13.454l3.836,-4.477l-2.554,-2.238l-3.844,4.474l0,0Zm-11.212,0.32c8.169,0 14.815,5.365 14.815,15.375c0,8.167 -6.646,15.214 -14.815,15.214c-9.048,0 -14.654,-7.047 -14.654,-15.214c0,-10.33 6.567,-15.375 14.654,-15.375Z" style="fill:#fff;fill-rule:nonzero;"/><path d="M585.049,460.543l0,39.537l3.912,0l0,-22.01c0,-8.17 5.686,-14.334 13.855,-14.415c8.568,-0.08 14.094,4.723 14.094,13.689l0,22.736l3.913,0l0,-22.816c0,-10.967 -7.276,-17.441 -17.848,-17.441c-5.525,0.079 -11.051,2.315 -14.093,7.754l0,-7.034l-3.833,0l0,0Z" style="fill:#fff;fill-rule:nonzero;"/><path d="M648.926,500.64c6.324,0 13.209,-2.555 17.051,-7.598l-2.801,-2.243c-2.962,3.925 -9.047,6.008 -14.25,6.008c-8.165,0 -15.289,-5.367 -16.09,-14.66l35.623,0c1.521,-15.448 -8.406,-22.245 -19.533,-22.245c-11.127,0 -20.093,8.56 -20.093,20.41c0,12.57 8.966,20.328 20.093,20.328l0,0Zm-16.09,-21.925c0.88,-9.692 7.925,-15.22 16.09,-15.22c9.526,0 15.931,5.447 16.011,15.22l-32.101,0Z" style="fill:#fff;fill-rule:nonzero;"/><path d="M678.631,460.543l0,39.537l3.913,0l0,-23.05c0,-7.211 5.683,-13.135 13.048,-13.215c2.321,0 4.643,0.56 6.724,1.842l1.762,-3.199c-2.643,-1.596 -5.524,-2.395 -8.486,-2.316c-5.043,0 -10.647,2.077 -13.129,7.435l-0.159,-7.034l-3.673,0l0,0Z" style="fill:#fff;fill-rule:nonzero;"/><path d="M156.447,580.132l4.313,0l0,-52.114l20.253,0l0,-3.833l-44.82,0l0,3.833l20.254,0l0,52.114Z" style="fill:#fff;fill-rule:nonzero;"/><path d="M215.035,580.132l0,-39.616l-3.912,0l0,22.009c0,8.171 -5.686,14.335 -13.855,14.414c-8.568,0.081 -14.094,-4.722 -14.094,-13.688l0,-22.735l-3.913,0l0,22.815c0,10.967 7.277,17.442 17.848,17.442c5.525,-0.081 11.051,-2.316 14.093,-7.756l0,7.115l3.833,0Z" style="fill:#fff;fill-rule:nonzero;"/><path d="M230.576,529.068l0,11.527l-8.406,0l0,3.273l8.406,0l0,24.103c0,7.767 2.714,12.721 11.117,12.721c2.482,0 4.964,-0.798 7.445,-1.996l-1.361,-3.198c-2.001,0.961 -4.163,1.602 -6.084,1.602c-6.164,0 -7.285,-3.763 -7.285,-9.129l0,-24.103l13.449,0l0,-3.273l-13.449,0l0,-11.927l-3.832,0.4Z" style="fill:#fff;fill-rule:nonzero;"/><path d="M275.16,580.692c11.131,0 20.088,-7.676 20.088,-20.248c0,-12.572 -8.957,-20.569 -20.088,-20.569c-11.13,0 -20.088,7.997 -20.088,20.569c0,12.572 8.958,20.248 20.088,20.248Zm0,-3.832c-8.969,0 -16.256,-6.166 -16.256,-16.416c0,-10.25 7.287,-16.896 16.256,-16.896c8.968,0 16.256,6.646 16.256,16.896c0,10.25 -7.288,16.416 -16.256,16.416l0,0Z" style="fill:#fff;fill-rule:nonzero;"/><path d="M304.305,540.595l0,39.537l3.912,0l0,-23.049c0,-7.211 5.684,-13.135 13.048,-13.215c2.322,0 4.643,0.561 6.725,1.841l1.761,-3.198c-2.641,-1.597 -5.524,-2.396 -8.486,-2.315c-5.043,0 -10.646,2.075 -13.128,7.435l-0.16,-7.036l-3.672,0Z" style="fill:#fff;fill-rule:nonzero;"/><path d="M339.599,540.436l0,39.696l-3.916,0l0,-39.696l3.916,0Zm-5.035,-12.729c0,4.163 6.314,4.163 6.314,0c0,-4.162 -6.314,-4.162 -6.314,0Z" style="fill:#fff;fill-rule:nonzero;"/><path d="M384.917,540.595l0,8.646c-3.283,-6.171 -9.769,-9.126 -16.175,-9.126c-11.052,0 -20.088,8.157 -20.088,20.249c0,12.092 9.036,20.409 20.088,20.409c6.406,0 12.331,-2.875 16.175,-9.038l0,8.397l3.913,0c0,-13.205 0,-26.331 0,-39.537l-3.913,0l0,0Zm-16.175,3.273c22.009,0 22.009,33.071 0,33.071c-8.969,0 -16.176,-6.646 -16.176,-16.575c0,-9.93 7.207,-16.496 16.176,-16.496l0,0Z" style="fill:#fff;fill-rule:nonzero;"/><rect x="399.487" y="524.025" width="3.912" height="56.107" style="fill:#fff;"/><path d="M476.972,532.822c-5.518,-8.239 -12.486,-9.517 -20.492,-9.517c-9.21,0 -21.53,3.672 -21.29,15.522c0,10.329 10.479,12.411 20.729,14.413c9.208,1.761 18.497,3.603 18.417,12.009c0,9.929 -10.97,11.851 -17.856,11.851c-6.888,0 -15.696,-3.363 -19.133,-10.169l-3.838,1.922c4.317,8.567 14.242,12.16 22.971,12.16c9.368,0 22.089,-3.035 22.169,-15.683c0,-12.09 -11.2,-14.012 -22.01,-16.094c-9.448,-1.761 -17.136,-3.443 -17.136,-10.569c0,-8.968 10.41,-11.37 16.977,-11.37c6.325,0.08 12.892,1.041 16.976,7.607l3.516,-2.082l0,0Z" style="fill:#fff;fill-rule:nonzero;"/><path d="M507.473,580.692c6.324,0 13.208,-2.555 17.051,-7.597l-2.802,-2.243c-2.962,3.925 -9.046,6.008 -14.249,6.008c-8.165,0 -15.29,-5.367 -16.091,-14.66l35.624,0c1.521,-15.448 -8.406,-22.244 -19.533,-22.244c-11.127,0 -20.093,8.558 -20.093,20.408c0,12.57 8.966,20.328 20.093,20.328Zm-16.091,-21.924c0.881,-9.693 7.926,-15.22 16.091,-15.22c9.526,0 15.93,5.447 16.011,15.22l-32.102,0Z" style="fill:#fff;fill-rule:nonzero;"/><path d="M537.177,540.595l0,39.537l3.913,0l0,-23.049c0,-7.211 5.684,-13.135 13.049,-13.215c2.321,0 4.643,0.561 6.724,1.841l1.761,-3.198c-2.641,-1.597 -5.523,-2.396 -8.485,-2.315c-5.043,0 -10.648,2.075 -13.128,7.435l-0.16,-7.036l-3.674,0l0,0Z" style="fill:#fff;fill-rule:nonzero;"/><path d="M572.473,540.436l0,39.696l-3.916,0l0,-39.696l3.916,0Zm-5.035,-12.729c0,4.163 6.314,4.163 6.314,0c0,-4.162 -6.314,-4.162 -6.314,0Z" style="fill:#fff;fill-rule:nonzero;"/><path d="M601.535,580.692c6.324,0 13.209,-2.555 17.051,-7.597l-2.801,-2.243c-2.962,3.925 -9.047,6.008 -14.25,6.008c-8.166,0 -15.29,-5.367 -16.09,-14.66l35.623,0c1.521,-15.448 -8.406,-22.244 -19.533,-22.244c-11.128,0 -20.093,8.558 -20.093,20.408c0,12.57 8.965,20.328 20.093,20.328Zm-16.09,-21.924c0.88,-9.693 7.924,-15.22 16.09,-15.22c9.526,0 15.931,5.447 16.01,15.22l-32.1,0Z" style="fill:#fff;fill-rule:nonzero;"/><path d="M660.773,545.229c-3.917,-3.677 -8.963,-5.273 -14.729,-5.273c-8.008,-0.081 -15.765,3.272 -15.685,11.039c0.079,7.928 7.677,9.369 15.365,10.65c6.487,1.041 13.053,2.162 12.894,7.848c-0.24,6.245 -7.528,7.527 -12.333,7.527c-5.286,0 -11.213,-2.002 -14.488,-6.727l-2.879,2.563c3.437,5.282 10.319,7.917 17.287,7.917c6.967,0 16.006,-2.316 16.245,-11.04c0.401,-9.209 -9.278,-10.41 -16.326,-11.612c-4.965,-0.88 -11.852,-1.921 -12.012,-7.206c-0.16,-5.045 5.766,-7.367 11.932,-7.287c4.405,0 8.329,0.64 12.334,4.163l2.395,-2.562l0,0Z" style="fill:#fff;fill-rule:nonzero;"/></g></svg>
