<?xml version="1.0" encoding="UTF-8" standalone="no"?><!DOCTYPE svg PUBLIC "-//W3C//DTD SVG 1.1//EN" "http://www.w3.org/Graphics/SVG/1.1/DTD/svg11.dtd"><svg width="100%" height="100%" viewBox="0 0 800 600" version="1.1" xmlns="http://www.w3.org/2000/svg" xmlns:xlink="http://www.w3.org/1999/xlink" xml:space="preserve" style="fill-rule:evenodd;clip-rule:evenodd;stroke-linejoin:round;stroke-miterlimit:1.41421;"><rect x="0" y="0" width="800" height="600" style="fill:#36393e;"/><g><path d="M320.106,451.976c-5.864,-5.789 -13.557,-8.676 -21.168,-8.676c-17.62,0 -29.934,11.82 -29.851,29.935c0,15.795 10.163,29.518 29.851,29.518c8.604,0 15.8,-3.3 21.828,-9.337l0,-21.666l-24.392,0l0,3.877l20.184,0l0,16.216c-4.963,4.551 -11.415,6.702 -17.62,6.702c-16.875,0 -25.561,-11.749 -25.561,-25.393c-0.082,-13.399 8.603,-25.81 25.561,-25.81c6.536,0 13.567,2.482 18.61,7.447l2.558,-2.813Z" style="fill:#fff;fill-rule:nonzero;"/><path d="M336.15,460.999l0,41.01l-4.046,0l0,-41.01l4.046,0Zm-5.202,-13.15c0,4.3 6.524,4.3 6.524,0c0,-4.301 -6.524,-4.301 -6.524,0Z" style="fill:#fff;fill-rule:nonzero;"/><path d="M353.113,449.255l0,11.909l-8.684,0l0,3.38l8.684,0l0,24.901c0,8.025 2.804,13.143 11.485,13.143c2.564,0 5.128,-0.825 7.691,-2.062l-1.406,-3.304c-2.067,0.992 -4.3,1.654 -6.285,1.654c-6.368,0 -7.526,-3.888 -7.526,-9.431l0,-24.901l13.894,0l0,-3.38l-13.894,0l0,-12.323l-3.959,0.414l0,0Z" style="fill:#fff;fill-rule:nonzero;"/><path d="M426.956,502.009l0,-57.964l-4.456,0l0,27.622l-36.896,0l0,-27.622l-4.455,0l0,57.964l4.455,0l0,-26.3l36.896,0l0,26.3l4.456,0Z" style="fill:#fff;fill-rule:nonzero;"/><path d="M475.833,502.009l0,-40.928l-4.042,0l0,22.738c0,8.441 -5.874,14.809 -14.313,14.892c-8.852,0.082 -14.561,-4.88 -14.561,-14.142l0,-23.488l-4.042,0l0,23.57c0,11.331 7.517,18.019 18.437,18.019c5.709,-0.082 11.417,-2.392 14.561,-8.012l0,7.351l3.96,0Z" style="fill:#fff;fill-rule:nonzero;"/><path d="M507.265,464.379c9.183,0 16.711,5.708 16.711,17.207c0,11.334 -7.528,17.125 -16.711,17.125c-9.597,0 -16.711,-7.032 -16.711,-17.208c0,-10.175 7.28,-17.124 16.711,-17.124Zm-20.753,-20.334l0,57.964l3.959,0l0,-9.015c3.392,6.212 10.093,9.676 17.042,9.676c11.416,0 20.422,-7.516 20.422,-21.084c0,-13.484 -9.088,-21.084 -20.505,-21.084c-7.032,0 -13.65,2.97 -16.959,9.585l0,-26.042l-3.959,0l0,0Z" style="fill:#fff;fill-rule:nonzero;"/><path d="M147.266,584.711l4.456,0l0,-53.839l20.923,0l0,-3.96l-46.303,0l0,3.96l20.924,0l0,53.839Z" style="fill:#fff;fill-rule:nonzero;"/><path d="M207.794,584.711l0,-40.927l-4.042,0l0,22.737c0,8.442 -5.874,14.81 -14.313,14.892c-8.852,0.083 -14.561,-4.879 -14.561,-14.142l0,-23.487l-4.042,0l0,23.57c0,11.33 7.517,18.019 18.438,18.019c5.708,-0.083 11.417,-2.392 14.56,-8.012l0,7.35l3.96,0Z" style="fill:#fff;fill-rule:nonzero;"/><path d="M223.849,531.957l0,11.909l-8.684,0l0,3.381l8.684,0l0,24.901c0,8.024 2.804,13.142 11.485,13.142c2.564,0 5.128,-0.825 7.691,-2.062l-1.406,-3.304c-2.067,0.993 -4.3,1.655 -6.285,1.655c-6.368,0 -7.526,-3.888 -7.526,-9.431l0,-24.901l13.894,0l0,-3.381l-13.894,0l0,-12.322l-3.959,0.413Z" style="fill:#fff;fill-rule:nonzero;"/><path d="M269.909,585.29c11.499,0 20.753,-7.93 20.753,-20.919c0,-12.988 -9.254,-21.249 -20.753,-21.249c-11.499,0 -20.753,8.261 -20.753,21.249c0,12.989 9.254,20.919 20.753,20.919Zm0,-3.959c-9.266,0 -16.794,-6.37 -16.794,-16.96c0,-10.589 7.528,-17.455 16.794,-17.455c9.265,0 16.794,6.866 16.794,17.455c0,10.59 -7.529,16.96 -16.794,16.96l0,0Z" style="fill:#fff;fill-rule:nonzero;"/><path d="M300.018,543.866l0,40.845l4.042,0l0,-23.812c0,-7.449 5.872,-13.569 13.48,-13.652c2.399,0 4.797,0.579 6.947,1.902l1.82,-3.304c-2.729,-1.65 -5.707,-2.475 -8.767,-2.392c-5.21,0 -10.999,2.144 -13.563,7.681l-0.165,-7.268l-3.794,0Z" style="fill:#fff;fill-rule:nonzero;"/><path d="M336.481,543.701l0,41.01l-4.046,0l0,-41.01l4.046,0Zm-5.202,-13.15c0,4.301 6.523,4.301 6.523,0c0,-4.3 -6.523,-4.3 -6.523,0Z" style="fill:#fff;fill-rule:nonzero;"/><path d="M383.299,543.866l0,8.932c-3.392,-6.376 -10.093,-9.428 -16.711,-9.428c-11.417,0 -20.753,8.427 -20.753,20.919c0,12.492 9.336,21.084 20.753,21.084c6.618,0 12.74,-2.97 16.711,-9.337l0,8.675l4.042,0c0,-13.642 0,-27.202 0,-40.845l-4.042,0l0,0Zm-16.711,3.381c22.738,0 22.738,34.166 0,34.166c-9.266,0 -16.711,-6.866 -16.711,-17.124c0,-10.259 7.445,-17.042 16.711,-17.042l0,0Z" style="fill:#fff;fill-rule:nonzero;"/><rect x="398.351" y="526.747" width="4.042" height="57.964" style="fill:#fff;"/><path d="M478.401,535.835c-5.701,-8.512 -12.899,-9.832 -21.171,-9.832c-9.514,0 -22.242,3.794 -21.994,16.036c0,10.671 10.826,12.822 21.415,14.89c9.513,1.819 19.109,3.722 19.027,12.407c0,10.257 -11.334,12.243 -18.448,12.243c-7.115,0 -16.215,-3.474 -19.766,-10.506l-3.965,1.986c4.46,8.85 14.714,12.562 23.731,12.562c9.679,0 22.821,-3.135 22.903,-16.202c0,-12.49 -11.57,-14.476 -22.738,-16.626c-9.761,-1.82 -17.703,-3.557 -17.703,-10.919c0,-9.265 10.754,-11.747 17.538,-11.747c6.535,0.083 13.319,1.076 17.538,7.859l3.633,-2.151l0,0Z" style="fill:#fff;fill-rule:nonzero;"/><path d="M509.911,585.29c6.534,0 13.646,-2.64 17.616,-7.849l-2.895,-2.317c-3.06,4.055 -9.345,6.207 -14.721,6.207c-8.435,0 -15.796,-5.545 -16.623,-15.145l36.803,0c1.571,-15.96 -8.684,-22.981 -20.18,-22.981c-11.495,0 -20.758,8.842 -20.758,21.084c0,12.986 9.263,21.001 20.758,21.001Zm-16.623,-22.65c0.91,-10.014 8.188,-15.724 16.623,-15.724c9.842,0 16.458,5.628 16.541,15.724l-33.164,0Z" style="fill:#fff;fill-rule:nonzero;"/><path d="M540.599,543.866l0,40.845l4.042,0l0,-23.812c0,-7.449 5.872,-13.569 13.481,-13.652c2.398,0 4.797,0.579 6.947,1.902l1.819,-3.304c-2.729,-1.65 -5.706,-2.475 -8.766,-2.392c-5.21,0 -11,2.144 -13.563,7.681l-0.165,-7.268l-3.795,0l0,0Z" style="fill:#fff;fill-rule:nonzero;"/><path d="M577.063,543.701l0,41.01l-4.046,0l0,-41.01l4.046,0Zm-5.202,-13.15c0,4.301 6.523,4.301 6.523,0c0,-4.3 -6.523,-4.3 -6.523,0Z" style="fill:#fff;fill-rule:nonzero;"/><path d="M607.087,585.29c6.533,0 13.646,-2.64 17.615,-7.849l-2.894,-2.317c-3.06,4.055 -9.346,6.207 -14.721,6.207c-8.436,0 -15.796,-5.545 -16.623,-15.145l36.802,0c1.572,-15.96 -8.684,-22.981 -20.179,-22.981c-11.496,0 -20.758,8.842 -20.758,21.084c0,12.986 9.262,21.001 20.758,21.001Zm-16.623,-22.65c0.909,-10.014 8.187,-15.724 16.623,-15.724c9.841,0 16.458,5.628 16.54,15.724l-33.163,0Z" style="fill:#fff;fill-rule:nonzero;"/><path d="M668.286,548.653c-4.047,-3.799 -9.26,-5.448 -15.217,-5.448c-8.273,-0.083 -16.287,3.381 -16.204,11.405c0.082,8.19 7.931,9.679 15.873,11.002c6.702,1.076 13.486,2.234 13.321,8.108c-0.248,6.452 -7.777,7.776 -12.741,7.776c-5.461,0 -11.584,-2.068 -14.968,-6.949l-2.974,2.647c3.551,5.457 10.661,8.179 17.859,8.179c7.198,0 16.536,-2.392 16.783,-11.405c0.414,-9.514 -9.585,-10.755 -16.866,-11.996c-5.13,-0.91 -12.245,-1.985 -12.41,-7.445c-0.165,-5.212 5.957,-7.611 12.327,-7.528c4.551,0 8.605,0.661 12.742,4.301l2.475,-2.647l0,0Z" style="fill:#fff;fill-rule:nonzero;"/></g><path d="M192.439,195.553c1.464,0 2.649,1.188 2.649,2.652l0,86.52c0,0.498 -0.083,1.581 -0.859,2.012c0,0 -18.831,13.263 -49.871,13.263c-37.487,0 -81.97,-11.545 -81.97,-89.018c0,-77.47 38.854,-93.586 76.734,-93.586c32.878,0 45.895,7.282 48.029,8.806c0.781,0.559 1.014,1.384 1.014,2.07l-6.33,26.805c0,1.463 -1.528,3.107 -3.179,2.603c-5.251,-1.628 -13.509,-5.001 -32.672,-5.001c-22.141,0 -45.72,6.554 -45.72,56.361c0,49.798 22.646,55.722 38.858,55.722c13.739,0 18.709,-1.695 18.709,-1.695l0,-34.465l-22.134,0c-1.464,0 -2.652,-1.192 -2.652,-2.656l0,-27.741c0,-1.464 1.188,-2.652 2.652,-2.652l56.742,0Zm342.906,-16.543c1.457,0 2.637,1.198 2.637,2.674c0,0 0,60.277 0,71.484c0,11.194 3.035,16.379 14.465,16.379c11.432,0 19.485,-5.893 19.485,-5.893l0,-81.97c0,-1.476 1.185,-2.674 2.639,-2.674l31.703,0c1.462,0 2.647,1.198 2.647,2.674l0.01,112.222c0,1.469 -1.19,2.669 -2.641,2.669l-20.472,0.091c-1.021,0 -1.968,-0.727 -2.332,-1.448c-0.362,-0.723 -1.165,-6.81 -1.165,-6.81c0,0 -16.861,11.553 -37.772,11.553c-25.492,0 -44.022,-8.135 -44.022,-41.381c0,-33.245 0,-76.896 0,-76.896c0,-1.476 1.191,-2.674 2.642,-2.674l32.176,0Zm124.689,-54.997c1.457,0 2.637,1.19 2.637,2.667l0,56.607c0,0 12.248,-8.033 30.255,-8.033c18.018,0 44.686,6.735 44.686,58.267c0,51.53 -16.698,66.298 -45.814,66.298c-24.799,0 -37.9,-12.415 -37.9,-12.415c0,0 -0.798,6.809 -1.35,7.707c-0.559,0.905 -1.317,1.42 -2.318,1.42l-22.23,0c-1.46,0 -2.644,-1.2 -2.644,-2.676l0,-167.175c0,-1.477 1.184,-2.667 2.64,-2.667l32.038,0Zm-343.774,21.273c1.385,0 2.002,0.597 2.002,1.798c0,0.006 0.036,31.659 0.036,31.659l23.965,0c1.462,0 2.644,1.189 2.644,2.664l0,25.751c0,1.481 -1.182,2.672 -2.644,2.672l-23.965,0c0,0 0,39.925 0,47.005c0,7.083 3.989,12.557 15.761,12.557c3.677,0 7.25,-0.569 8.646,-0.569c1.403,0 2.649,1.194 2.649,2.669l-0.027,22.617c0,1.067 -0.55,2.049 -1.499,2.397c-1.57,0.58 -11.074,3.133 -19.019,3.133c-17.391,0 -43.159,-3.611 -43.159,-40.348l0,-49.461l-16.744,0c-1.462,0 -2.642,-1.191 -2.642,-2.672l0,-20.557c0,-1.214 0.811,-2.228 1.913,-2.549c1.107,-0.319 17.473,-4.271 17.473,-4.271l0,-32.716c0,-1.22 0.682,-1.779 1.951,-1.779l32.659,0Zm78.941,-21.273c1.462,0 2.637,1.19 2.637,2.667l0,61.739l49.799,0l-0.008,-61.739c0,-1.477 1.186,-2.667 2.645,-2.667l31.95,0c1.463,0 2.633,1.19 2.633,2.667l0,167.175c-0.003,1.476 -1.173,2.676 -2.637,2.676l-32.024,0c-1.462,0 -2.647,-1.2 -2.647,-2.676l0.088,-71.508l-49.799,0l0,71.508c0,1.476 -1.175,2.676 -2.637,2.676l-31.947,0c-1.453,0 -2.638,-1.2 -2.638,-2.676l0,-167.175c0,-1.477 1.185,-2.667 2.638,-2.667l31.947,0Zm-147.402,54.747c1.46,0 2.644,1.197 2.644,2.662l0,110.818c0,2.721 -0.773,4.266 -3.922,4.266l-28.693,0c-2.62,0 -4.646,-0.966 -4.646,-4.215c0,-17.701 0,-110.562 0,-110.562c0,-1.463 1.308,-2.969 2.769,-2.969l31.848,0Zm432.622,90.686c-10.996,-0.334 -18.456,-5.324 -18.456,-5.324l0,-52.941c0,0 7.358,-4.511 16.388,-5.317c11.416,-1.022 22.416,2.427 22.416,29.66c0,28.719 -4.965,34.386 -20.348,33.922l0,0Zm-427.694,-120.83c0,-11.504 -9.226,-20.798 -20.603,-20.798c-11.367,0 -20.598,9.294 -20.598,20.798c0,11.493 9.231,20.814 20.598,20.814c11.377,0 20.603,-9.321 20.603,-20.814Z" style="fill:#fff;"/></svg>
