<?xml version="1.0" encoding="UTF-8" standalone="no"?>
<!DOCTYPE svg PUBLIC "-//W3C//DTD SVG 1.1//EN" "http://www.w3.org/Graphics/SVG/1.1/DTD/svg11.dtd">
<svg width="100%" height="100%" viewBox="0 0 193 39" version="1.1" xmlns="http://www.w3.org/2000/svg" xmlns:xlink="http://www.w3.org/1999/xlink" xml:space="preserve" style="fill-rule:evenodd;clip-rule:evenodd;stroke-linejoin:round;stroke-miterlimit:1.41421;">
    <g transform="matrix(1,0,0,1,-143.787,-160.832)">
        <g transform="matrix(1,0,0,1,57.9175,45.6918)">
            <g transform="matrix(1,0,0,1,-0.0620079,0.121801)">
                <path d="M138.755,136.048C139.559,127.459 135.201,123.143 128.219,123.143C121.449,123.143 117.133,127.713 117.133,134.06C117.133,140.745 121.407,145.188 128.6,145.188C131.774,145.188 135.37,144.088 137.571,141.803L134.27,138.545C133.085,139.772 130.589,140.491 128.685,140.491C125.046,140.491 122.803,138.629 122.465,136.048L138.755,136.048ZM122.55,131.775C123.311,129.067 125.596,127.713 128.389,127.713C131.351,127.713 133.466,129.067 133.805,131.775L122.55,131.775Z" style="fill:rgb(112,255,147);fill-rule:nonzero;"/>
                <path d="M159.235,125.935C156.823,123.82 154.369,123.185 151.111,123.185C147.303,123.185 142.31,124.878 142.31,129.701C142.31,134.44 147.007,135.879 150.942,136.175C153.904,136.344 155.088,136.937 155.088,138.375C155.088,139.899 153.269,140.914 151.322,140.872C148.995,140.83 145.61,139.603 144.129,137.952L141.59,141.634C144.637,144.807 147.937,145.357 151.238,145.357C157.204,145.357 160.208,142.184 160.208,138.502C160.208,132.959 155.215,132.071 151.28,131.817C148.614,131.648 147.387,130.886 147.387,129.532C147.387,128.22 148.741,127.459 151.196,127.459C153.184,127.459 154.877,127.924 156.358,129.32L159.235,125.935Z" style="fill:rgb(112,255,147);fill-rule:nonzero;"/>
                <path d="M175.06,140.153C171.548,140.153 169.136,137.487 169.136,134.229C169.136,130.971 171.337,128.305 175.06,128.305C178.784,128.305 180.984,130.971 180.984,134.229C180.984,137.487 178.572,140.153 175.06,140.153ZM168.671,153.354L168.671,142.184C170.152,144.469 173.41,145.146 175.61,145.146C182.296,145.146 186.146,140.322 186.146,134.229C186.146,128.093 181.873,123.312 175.441,123.312C173.071,123.312 170.279,124.327 168.671,126.655L168.332,123.777L163.509,123.777L163.509,153.354L168.671,153.354Z" style="fill:rgb(112,255,147);fill-rule:nonzero;"/>
                <path d="M189.954,115.019L189.954,144.638L195.117,144.638L195.117,133.975C195.117,130.844 197.232,128.263 200.279,128.263C203.029,128.263 205.018,129.871 205.018,133.679L205.018,144.638L210.18,144.638L210.18,133.636C210.18,127.501 207.557,123.481 201.633,123.481C199.263,123.481 196.978,124.201 195.117,126.612L195.117,115.019L189.954,115.019Z" style="fill:rgb(112,255,147);fill-rule:nonzero;"/>
                <path d="M235.229,136.048C236.033,127.459 231.675,123.143 224.693,123.143C217.923,123.143 213.607,127.713 213.607,134.06C213.607,140.745 217.881,145.188 225.074,145.188C228.248,145.188 231.844,144.088 234.045,141.803L230.744,138.545C229.559,139.772 227.063,140.491 225.159,140.491C221.52,140.491 219.277,138.629 218.939,136.048L235.229,136.048ZM219.024,131.775C219.785,129.067 222.07,127.713 224.863,127.713C227.825,127.713 229.94,129.067 230.279,131.775L219.024,131.775Z" style="fill:rgb(112,255,147);fill-rule:nonzero;"/>
                <path d="M239.207,123.777L239.207,144.638L244.369,144.638L244.369,133.636C244.369,129.786 246.866,128.347 249.574,128.347C251.266,128.347 252.239,128.813 253.297,129.701L255.624,125.216C254.482,124.074 252.409,123.227 250.251,123.227C248.135,123.227 245.977,123.608 244.369,126.189L243.988,123.777L239.207,123.777Z" style="fill:rgb(112,255,147);fill-rule:nonzero;"/>
                <path d="M278.262,136.048C279.066,127.459 274.708,123.143 267.726,123.143C260.956,123.143 256.64,127.713 256.64,134.06C256.64,140.745 260.914,145.188 268.107,145.188C271.28,145.188 274.877,144.088 277.077,141.803L273.777,138.545C272.592,139.772 270.096,140.491 268.191,140.491C264.552,140.491 262.31,138.629 261.971,136.048L278.262,136.048ZM262.056,131.775C262.818,129.067 265.103,127.713 267.895,127.713C270.857,127.713 272.973,129.067 273.311,131.775L262.056,131.775Z" style="fill:rgb(112,255,147);fill-rule:nonzero;"/>
            </g>
            <g transform="matrix(0.45009,0,0,0.45009,83.1432,55.2878)">
                <path d="M23.193,132.979C13.712,132.979 6.058,140.616 6.058,150.076L6.058,200.521L40.291,200.521L40.291,150.076C40.291,140.616 32.675,132.979 23.193,132.979ZM64.842,200.521L42.777,200.521L42.777,165.864C55.998,167.068 66.344,178.167 66.344,191.703C66.344,194.796 65.834,197.77 64.842,200.521Z" style="fill:rgb(112,255,147);"/>
            </g>
        </g>
    </g>
</svg>
