<?xml version="1.0" encoding="UTF-8" standalone="no"?><!DOCTYPE svg PUBLIC "-//W3C//DTD SVG 1.1//EN" "http://www.w3.org/Graphics/SVG/1.1/DTD/svg11.dtd"><svg width="100%" height="100%" viewBox="0 0 800 600" version="1.1" xmlns="http://www.w3.org/2000/svg" xmlns:xlink="http://www.w3.org/1999/xlink" xml:space="preserve" style="fill-rule:evenodd;clip-rule:evenodd;stroke-linejoin:round;stroke-miterlimit:1.41421;"><rect x="0" y="0" width="800" height="600" style="fill:#36393e;"/><g><path d="M300.419,453.133c-5.701,-8.513 -12.898,-9.833 -21.17,-9.833c-9.514,0 -22.242,3.795 -21.994,16.037c0,10.67 10.826,12.821 21.415,14.889c9.513,1.82 19.109,3.722 19.027,12.408c0,10.257 -11.334,12.242 -18.448,12.242c-7.115,0 -16.215,-3.474 -19.766,-10.505l-3.965,1.985c4.46,8.85 14.713,12.562 23.731,12.562c9.679,0 22.821,-3.134 22.903,-16.201c0,-12.491 -11.57,-14.476 -22.738,-16.627c-9.762,-1.82 -17.703,-3.557 -17.703,-10.919c0,-9.264 10.754,-11.746 17.538,-11.746c6.535,0.083 13.319,1.075 17.538,7.858l3.632,-2.15l0,0Z" style="fill:#fff;fill-rule:nonzero;"/><path d="M341.601,493.582c-3.308,3.309 -7.774,5.046 -12.157,5.046c-9.263,0 -17.037,-6.039 -17.037,-17.042c0,-11.003 7.774,-17.042 17.037,-17.042c4.383,0 8.932,1.572 12.24,4.881l2.646,-2.564c-4.135,-4.049 -9.51,-6.111 -14.886,-6.111c-11.827,0 -20.996,7.931 -20.996,20.836c0,12.906 9.5,20.836 20.996,20.836c5.376,0 10.751,-1.979 14.886,-6.11l-2.729,-2.73l0,0Z" style="fill:#fff;fill-rule:nonzero;"/><path d="M352.611,461.164l0,40.845l4.042,0l0,-23.813c0,-7.449 5.872,-13.569 13.481,-13.652c2.398,0 4.796,0.579 6.947,1.903l1.819,-3.305c-2.729,-1.649 -5.706,-2.474 -8.766,-2.392c-5.211,0 -11,2.145 -13.563,7.681l-0.165,-7.267l-3.795,0l0,0Z" style="fill:#fff;fill-rule:nonzero;"/><path d="M420.262,461.164l0,8.932c-3.392,-6.376 -10.093,-9.428 -16.712,-9.428c-11.416,0 -20.753,8.426 -20.753,20.918c0,12.492 9.337,21.084 20.753,21.084c6.619,0 12.741,-2.969 16.712,-9.336l0,8.675l4.042,0c0,-13.643 0,-27.202 0,-40.845l-4.042,0l0,0Zm-16.712,3.38c22.739,0 22.739,34.167 0,34.167c-9.265,0 -16.711,-6.867 -16.711,-17.125c0,-10.258 7.446,-17.042 16.711,-17.042l0,0Z" style="fill:#fff;fill-rule:nonzero;"/><path d="M438.952,449.255l0,11.909l-8.683,0l0,3.38l8.683,0l0,24.901c0,8.025 2.805,13.143 11.486,13.143c2.563,0 5.127,-0.825 7.691,-2.062l-1.406,-3.304c-2.067,0.992 -4.3,1.654 -6.285,1.654c-6.368,0 -7.526,-3.888 -7.526,-9.431l0,-24.901l13.894,0l0,-3.38l-13.894,0l0,-12.323l-3.96,0.414l0,0Z" style="fill:#fff;fill-rule:nonzero;"/><path d="M496.916,493.582c-3.308,3.309 -7.774,5.046 -12.157,5.046c-9.262,0 -17.036,-6.039 -17.036,-17.042c0,-11.003 7.774,-17.042 17.036,-17.042c4.383,0 8.932,1.572 12.24,4.881l2.647,-2.564c-4.135,-4.049 -9.511,-6.111 -14.887,-6.111c-11.826,0 -20.996,7.931 -20.996,20.836c0,12.906 9.501,20.836 20.996,20.836c5.376,0 10.752,-1.979 14.887,-6.11l-2.73,-2.73l0,0Z" style="fill:#fff;fill-rule:nonzero;"/><path d="M507.926,444.045l0,57.964l4.042,0l0,-22.413c0,-8.518 5.957,-15.134 14.561,-15.134c9.184,0 13.155,5.706 13.155,14.142l0,23.405l3.959,0l0,-23.405c0,-10.669 -5.697,-18.019 -17.114,-18.019c-5.708,0.082 -11.417,2.31 -14.726,8.177l0,-24.717l-3.877,0l0,0Z" style="fill:#fff;fill-rule:nonzero;"/><path d="M149.08,584.711l4.456,0l0,-53.839l20.923,0l0,-3.96l-46.303,0l0,3.96l20.924,0l0,53.839Z" style="fill:#fff;fill-rule:nonzero;"/><path d="M209.608,584.711l0,-40.927l-4.042,0l0,22.737c0,8.442 -5.874,14.81 -14.313,14.892c-8.852,0.083 -14.561,-4.879 -14.561,-14.142l0,-23.487l-4.042,0l0,23.57c0,11.33 7.517,18.019 18.438,18.019c5.708,-0.083 11.417,-2.392 14.56,-8.012l0,7.35l3.96,0Z" style="fill:#fff;fill-rule:nonzero;"/><path d="M225.663,531.957l0,11.909l-8.684,0l0,3.381l8.684,0l0,24.901c0,8.024 2.804,13.142 11.485,13.142c2.564,0 5.128,-0.825 7.691,-2.062l-1.406,-3.304c-2.067,0.993 -4.3,1.655 -6.285,1.655c-6.368,0 -7.526,-3.888 -7.526,-9.431l0,-24.901l13.894,0l0,-3.381l-13.894,0l0,-12.322l-3.959,0.413Z" style="fill:#fff;fill-rule:nonzero;"/><path d="M271.723,585.29c11.499,0 20.753,-7.93 20.753,-20.919c0,-12.988 -9.254,-21.249 -20.753,-21.249c-11.499,0 -20.753,8.261 -20.753,21.249c0,12.989 9.254,20.919 20.753,20.919Zm0,-3.959c-9.266,0 -16.794,-6.37 -16.794,-16.96c0,-10.589 7.528,-17.455 16.794,-17.455c9.265,0 16.794,6.866 16.794,17.455c0,10.59 -7.529,16.96 -16.794,16.96l0,0Z" style="fill:#fff;fill-rule:nonzero;"/><path d="M301.832,543.866l0,40.845l4.042,0l0,-23.812c0,-7.449 5.872,-13.569 13.48,-13.652c2.399,0 4.797,0.579 6.947,1.902l1.82,-3.304c-2.729,-1.65 -5.707,-2.475 -8.767,-2.392c-5.21,0 -10.999,2.144 -13.563,7.681l-0.165,-7.268l-3.794,0Z" style="fill:#fff;fill-rule:nonzero;"/><path d="M338.295,543.701l0,41.01l-4.046,0l0,-41.01l4.046,0Zm-5.202,-13.15c0,4.301 6.523,4.301 6.523,0c0,-4.3 -6.523,-4.3 -6.523,0Z" style="fill:#fff;fill-rule:nonzero;"/><path d="M385.113,543.866l0,8.932c-3.392,-6.376 -10.093,-9.428 -16.711,-9.428c-11.417,0 -20.753,8.427 -20.753,20.919c0,12.492 9.336,21.084 20.753,21.084c6.618,0 12.74,-2.97 16.711,-9.337l0,8.675l4.042,0c0,-13.642 0,-27.202 0,-40.845l-4.042,0l0,0Zm-16.711,3.381c22.738,0 22.738,34.166 0,34.166c-9.266,0 -16.711,-6.866 -16.711,-17.124c0,-10.259 7.445,-17.042 16.711,-17.042l0,0Z" style="fill:#fff;fill-rule:nonzero;"/><rect x="400.165" y="526.747" width="4.042" height="57.964" style="fill:#fff;"/><path d="M480.215,535.835c-5.701,-8.512 -12.899,-9.832 -21.171,-9.832c-9.514,0 -22.242,3.794 -21.994,16.036c0,10.671 10.826,12.822 21.415,14.89c9.513,1.819 19.109,3.722 19.027,12.407c0,10.257 -11.334,12.243 -18.448,12.243c-7.115,0 -16.215,-3.474 -19.766,-10.506l-3.965,1.986c4.46,8.85 14.714,12.562 23.731,12.562c9.679,0 22.821,-3.135 22.903,-16.202c0,-12.49 -11.57,-14.476 -22.738,-16.626c-9.761,-1.82 -17.703,-3.557 -17.703,-10.919c0,-9.265 10.754,-11.747 17.538,-11.747c6.535,0.083 13.319,1.076 17.538,7.859l3.633,-2.151l0,0Z" style="fill:#fff;fill-rule:nonzero;"/><path d="M511.725,585.29c6.534,0 13.646,-2.64 17.616,-7.849l-2.895,-2.317c-3.06,4.055 -9.345,6.207 -14.721,6.207c-8.435,0 -15.796,-5.545 -16.623,-15.145l36.803,0c1.571,-15.96 -8.684,-22.981 -20.18,-22.981c-11.495,0 -20.758,8.842 -20.758,21.084c0,12.986 9.263,21.001 20.758,21.001Zm-16.623,-22.65c0.91,-10.014 8.188,-15.724 16.623,-15.724c9.842,0 16.458,5.628 16.541,15.724l-33.164,0Z" style="fill:#fff;fill-rule:nonzero;"/><path d="M542.413,543.866l0,40.845l4.042,0l0,-23.812c0,-7.449 5.872,-13.569 13.481,-13.652c2.398,0 4.797,0.579 6.947,1.902l1.819,-3.304c-2.729,-1.65 -5.706,-2.475 -8.766,-2.392c-5.21,0 -11,2.144 -13.563,7.681l-0.165,-7.268l-3.795,0l0,0Z" style="fill:#fff;fill-rule:nonzero;"/><path d="M578.877,543.701l0,41.01l-4.046,0l0,-41.01l4.046,0Zm-5.202,-13.15c0,4.301 6.523,4.301 6.523,0c0,-4.3 -6.523,-4.3 -6.523,0Z" style="fill:#fff;fill-rule:nonzero;"/><path d="M608.901,585.29c6.533,0 13.646,-2.64 17.615,-7.849l-2.894,-2.317c-3.06,4.055 -9.346,6.207 -14.721,6.207c-8.436,0 -15.796,-5.545 -16.623,-15.145l36.802,0c1.572,-15.96 -8.684,-22.981 -20.179,-22.981c-11.496,0 -20.758,8.842 -20.758,21.084c0,12.986 9.262,21.001 20.758,21.001Zm-16.623,-22.65c0.909,-10.014 8.187,-15.724 16.623,-15.724c9.841,0 16.458,5.628 16.54,15.724l-33.163,0Z" style="fill:#fff;fill-rule:nonzero;"/><path d="M670.1,548.653c-4.047,-3.799 -9.26,-5.448 -15.217,-5.448c-8.273,-0.083 -16.287,3.381 -16.204,11.405c0.082,8.19 7.931,9.679 15.873,11.002c6.702,1.076 13.486,2.234 13.321,8.108c-0.248,6.452 -7.777,7.776 -12.741,7.776c-5.461,0 -11.584,-2.068 -14.968,-6.949l-2.974,2.647c3.551,5.457 10.661,8.179 17.859,8.179c7.198,0 16.536,-2.392 16.783,-11.405c0.414,-9.514 -9.585,-10.755 -16.866,-11.996c-5.13,-0.91 -12.245,-1.985 -12.41,-7.445c-0.165,-5.212 5.957,-7.611 12.327,-7.528c4.551,0 8.605,0.661 12.742,4.301l2.475,-2.647l0,0Z" style="fill:#fff;fill-rule:nonzero;"/></g><path d="M403.534,304.294c-3.405,0 -6.809,-0.19 -10.189,-0.594c-0.692,0.904 -1.422,1.802 -2.181,2.66c-8.185,9.248 -19.491,14.771 -31.83,15.531c-0.822,0.061 -1.868,0.091 -2.896,0.091c-24.163,0 -44.434,-18.935 -46.145,-43.089c-0.015,-0.313 -0.023,-0.638 -0.053,-0.958c-0.387,-7.759 -0.91,-22.856 0.03,-39.876c0.632,-11.095 0.913,-29.771 0.921,-30.439c0,-0.053 0,-0.085 0,-0.139c0.166,-11.45 4.566,-21.928 11.685,-29.96c-3.526,-12.293 -4.672,-26.952 -2.468,-44.215l0.334,-2.704c1.247,-10.229 3.108,-25.379 10.804,-39.962c11.642,-22.02 32.977,-34.655 58.531,-34.655c1.466,0 2.993,0.046 4.544,0.136c2.294,0.123 4.794,0.395 7.47,0.868c8.168,-7.204 18.897,-11.589 30.605,-11.589c0.153,0 0.319,0 0.472,0c25.339,0.313 45.87,21.163 45.743,46.481c0,0.174 0,0.349 0,0.515c-0.009,0.563 -2.319,65.286 -3.017,69.883c-0.053,0.32 -0.107,0.639 -0.16,0.949c-0.608,3.443 -1.604,6.74 -2.91,9.849c11.184,13.152 17.233,29.49 17.431,47.953c0.242,23.214 -10.381,45.757 -29.156,61.844c-16.116,13.82 -36.562,21.42 -57.565,21.42l0,0Zm-12.423,-130.2c-11.649,-1.824 -17.819,-9.581 -14.757,-33.69l0.372,-2.919c2.583,-20.971 4.802,-25.561 14.802,-25.044c2.993,0.19 6.391,2.045 9.81,4.832c3.085,3.632 10.144,8.351 14.027,17.727c2.849,6.831 3.821,11.284 4.178,16.086c0.03,0.154 0.677,5.881 0.677,5.881l0.008,0c0.766,4.012 3.919,7.319 8.175,8.085c5.501,0.989 10.79,-2.675 11.786,-8.191c0.083,-0.63 2.592,-64.093 2.606,-65.148c0.03,-5.585 -4.476,-10.136 -10.067,-10.198c-5.638,-0.006 -10.198,4.506 -10.229,10.121c0,0.121 -0.045,8.829 -0.205,17.682c-7.955,-8.699 -18.22,-16.497 -29.641,-17.135c-30.737,-1.685 -34.07,26.541 -36.07,42.825l-0.358,2.864c-4.087,32.09 6.613,52.37 31.771,56.297c27.369,4.317 45.651,10.608 45.825,27.446c0.068,6.504 -3.351,13.22 -9.391,18.403c-7.204,6.179 -16.946,8.936 -26.018,7.408c-2.819,-0.455 -5.501,-1.17 -8.016,-2.066c-3.64,-1.976 -12.651,-7.454 -17.225,-13.799c-3.876,-5.357 -5.191,-13.782 -5.617,-19.101c0.054,-2.372 0.077,-3.959 0.086,-4.181c0.068,-5.576 -4.4,-10.165 -10.015,-10.272c-5.602,-0.106 -10.244,4.368 -10.319,10.006c0,0.192 -0.304,20.053 -0.965,32.029c-1.064,19.277 -0.03,35.628 0,36.319c0.387,5.608 5.189,9.863 10.788,9.491c5.624,-0.349 9.84,-5.189 9.5,-10.767c0,-0.151 -0.517,-8.009 -0.44,-18.995c7.414,4.772 17.141,9.399 28.881,11.382c15.136,2.53 30.652,-1.84 42.551,-12.035c10.621,-9.089 16.655,-21.506 16.525,-34.035c-0.409,-37.504 -42.672,-44.1 -63.035,-47.308l0,0Z" style="fill:#fff;"/></svg>