<?xml version="1.0" encoding="UTF-8" standalone="no"?><!DOCTYPE svg PUBLIC "-//W3C//DTD SVG 1.1//EN" "http://www.w3.org/Graphics/SVG/1.1/DTD/svg11.dtd"><svg width="100%" height="100%" viewBox="0 0 880 100" version="1.1" xmlns="http://www.w3.org/2000/svg" xmlns:xlink="http://www.w3.org/1999/xlink" xml:space="preserve" style="fill-rule:evenodd;clip-rule:evenodd;stroke-linejoin:round;stroke-miterlimit:1.41421;"><g><path d="M572.657,14.593l-12.956,0l-14.006,44.262l-15.319,-44.262l-7.529,0l-14.881,44.262l-14.444,-44.262l-12.956,0l22.498,61.353l9.804,0l7.441,-19.107l6.39,-19.546l6.478,19.371l7.616,19.282l9.804,0l22.06,-61.353Z" style="fill:#7adfbb;fill-rule:nonzero;"/><path d="M614.5,58.176c1.663,-17.77 -7.353,-26.688 -21.797,-26.688c-14.006,0 -22.935,9.443 -22.935,22.579c0,13.836 8.841,23.017 23.723,23.017c6.565,0 14.006,-2.273 18.558,-6.995l-6.828,-6.742c-2.451,2.541 -7.616,4.031 -11.555,4.031c-7.529,0 -12.168,-3.856 -12.868,-9.202l33.702,0Zm-33.527,-8.831c1.575,-5.609 6.302,-8.414 12.08,-8.414c6.128,0 10.504,2.805 11.205,8.414l-23.285,0Z" style="fill:#7adfbb;fill-rule:nonzero;"/><path d="M646.626,41.719c6.831,0 12.261,4.816 12.261,12.611c0,7.531 -5.43,12.698 -12.261,12.698c-6.743,0 -12.523,-4.904 -12.523,-12.698c0,-7.532 5.78,-12.611 12.523,-12.611Zm-23.892,-26.951l0,61.178l9.97,0l0.699,-5.952c3.327,5.166 8.669,6.915 13.924,6.915c12.697,0 22.229,-8.394 22.229,-22.579c0,-14.885 -9.357,-22.58 -21.966,-22.58c-4.554,0 -11.648,2.449 -14.187,6.908l0,-23.89l-10.669,0Z" style="fill:#7adfbb;fill-rule:nonzero;"/><path d="M711.576,37.258c-4.984,-4.371 -10.059,-5.683 -16.804,-5.683c-7.883,0 -18.202,3.497 -18.202,13.476c0,9.803 9.706,12.775 17.852,13.387c6.131,0.351 8.584,1.578 8.584,4.558c0,3.154 -3.766,5.258 -7.796,5.17c-4.818,-0.087 -11.819,-2.629 -14.88,-6.047l-5.248,7.621c6.297,6.558 13.12,7.694 19.953,7.694c12.344,0 18.552,-6.557 18.552,-14.176c0,-11.464 -10.318,-13.3 -18.465,-13.825c-5.518,-0.351 -8.059,-1.928 -8.059,-4.733c0,-2.717 2.804,-4.294 7.884,-4.294c4.117,0 7.621,0.964 10.683,3.856l5.946,-7.004Z" style="fill:#7adfbb;fill-rule:nonzero;"/><path d="M731.096,32.626l0,43.32l-10.671,0l0,-43.32l10.671,0Zm-11.633,-11.993c0,8.316 12.595,8.316 12.595,0c0,-8.316 -12.595,-8.316 -12.595,0Z" style="fill:#7adfbb;fill-rule:nonzero;"/><path d="M745.112,21.771l0,11.117l-8.053,0l0,9.181l8.053,0l0,18.654c0,10.764 6.121,16.098 15.483,15.748c3.239,-0.087 5.778,-0.612 8.842,-1.836l-2.977,-9.096c-1.575,0.789 -3.501,1.314 -5.164,1.314c-3.327,0 -5.603,-2.014 -5.603,-6.13l0,-18.654l11.993,0l0,-9.181l-11.905,0l0,-12.255l-10.669,1.138Z" style="fill:#7adfbb;fill-rule:nonzero;"/><path d="M818.464,58.176c1.663,-17.77 -7.354,-26.688 -21.797,-26.688c-14.007,0 -22.935,9.443 -22.935,22.579c0,13.836 8.841,23.017 23.722,23.017c6.566,0 14.007,-2.273 18.558,-6.995l-6.827,-6.742c-2.452,2.541 -7.616,4.031 -11.556,4.031c-7.528,0 -12.167,-3.856 -12.868,-9.202l33.703,0Zm-33.528,-8.831c1.576,-5.609 6.303,-8.414 12.081,-8.414c6.127,0 10.504,2.805 11.205,8.414l-23.286,0Z" style="fill:#7adfbb;fill-rule:nonzero;"/><path d="M860.829,37.258c-4.985,-4.371 -10.059,-5.683 -16.804,-5.683c-7.884,0 -18.203,3.497 -18.203,13.476c0,9.803 9.707,12.775 17.852,13.387c6.132,0.351 8.585,1.578 8.585,4.558c0,3.154 -3.767,5.258 -7.797,5.17c-4.817,-0.087 -11.819,-2.629 -14.88,-6.047l-5.248,7.621c6.298,6.558 13.121,7.694 19.953,7.694c12.344,0 18.553,-6.557 18.553,-14.176c0,-11.464 -10.319,-13.3 -18.465,-13.825c-5.519,-0.351 -8.059,-1.928 -8.059,-4.733c0,-2.717 2.803,-4.294 7.884,-4.294c4.117,0 7.621,0.964 10.682,3.856l5.947,-7.004Z" style="fill:#7adfbb;fill-rule:nonzero;"/><path d="M143.06,56.904c1.68,-17.94 -7.423,-26.954 -22.004,-26.954c-14.141,0 -23.155,9.544 -23.155,22.799c0,13.965 8.927,23.243 23.95,23.243c6.629,0 14.139,-2.297 18.735,-7.07l-6.893,-6.803c-2.475,2.562 -7.688,4.065 -11.666,4.065c-7.599,0 -12.284,-3.889 -12.991,-9.28l34.024,0Zm-33.847,-8.927c1.59,-5.655 6.362,-8.483 12.197,-8.483c6.186,0 10.604,2.828 11.311,8.483l-23.508,0l0,0Z" style="fill:#7adfbb;fill-rule:nonzero;"/><path d="M169.663,46.033l-8.573,-14.759l-12.903,0l0,0.354l14.317,21.121l-15.2,21.829l0,0.266l12.902,0l9.457,-14.582l9.454,14.582l12.905,0l0,-0.266l-15.202,-21.829l14.316,-21.121l0,-0.354l-12.902,0l-8.571,14.759l0,0Z" style="fill:#7adfbb;fill-rule:nonzero;"/><path d="M231.966,35.782c-5.037,-4.418 -10.162,-5.745 -16.968,-5.745c-7.953,0 -18.381,3.537 -18.381,13.611c0,9.898 9.808,12.902 18.028,13.522c6.186,0.353 8.66,1.591 8.66,4.595c0,3.182 -3.799,5.303 -7.866,5.213c-4.859,-0.087 -11.929,-2.651 -15.023,-6.096l-5.302,7.687c6.362,6.629 13.255,7.777 20.148,7.777c12.462,0 18.737,-6.627 18.737,-14.317c0,-11.577 -10.428,-13.432 -18.647,-13.962c-5.569,-0.354 -8.13,-1.944 -8.13,-4.772c0,-2.741 2.827,-4.331 7.953,-4.331c4.154,0 7.689,0.973 10.781,3.888l6.01,-7.07l0,0Z" style="fill:#7adfbb;fill-rule:nonzero;"/><path d="M265.019,65.886c-7.336,0 -12.373,-5.568 -12.373,-12.373c0,-6.804 4.596,-12.372 12.373,-12.372c7.776,0 12.372,5.568 12.372,12.372c0,6.805 -5.037,12.373 -12.372,12.373Zm-13.346,27.572l0,-23.33c3.094,4.772 9.898,6.186 14.495,6.186c13.963,0 22.006,-10.074 22.006,-22.801c0,-12.813 -8.927,-22.8 -22.359,-22.8c-4.951,0 -10.783,2.121 -14.142,6.982l-0.707,-6.011l-10.074,0l0,61.774l10.781,0Z" style="fill:#7adfbb;fill-rule:nonzero;"/><path d="M296.127,12.982l0,61.862l10.782,0l0,-22.271c0,-6.54 4.418,-11.93 10.781,-11.93c5.745,0 9.898,3.359 9.898,11.312l0,22.889l10.783,0l0,-22.978c0,-12.813 -5.481,-21.209 -17.853,-21.209c-4.949,0 -9.721,1.503 -13.609,6.539l0,-24.214l-10.782,0l0,0Z" style="fill:#7adfbb;fill-rule:nonzero;"/><path d="M390.689,56.904c1.678,-17.94 -7.425,-26.954 -22.006,-26.954c-14.141,0 -23.155,9.544 -23.155,22.799c0,13.965 8.926,23.243 23.95,23.243c6.628,0 14.139,-2.297 18.736,-7.07l-6.895,-6.803c-2.474,2.562 -7.687,4.065 -11.665,4.065c-7.6,0 -12.284,-3.889 -12.991,-9.28l34.026,0Zm-33.849,-8.927c1.59,-5.655 6.364,-8.483 12.197,-8.483c6.186,0 10.604,2.828 11.311,8.483l-23.508,0Z" style="fill:#7adfbb;fill-rule:nonzero;"/><path d="M398.996,31.274l0,43.57l10.781,0l0,-22.978c0,-8.041 5.215,-11.046 10.871,-11.046c3.535,0 5.566,0.971 7.776,2.828l4.862,-9.367c-2.387,-2.387 -6.718,-4.155 -11.224,-4.155c-4.419,0 -8.927,0.795 -12.285,6.186l-0.794,-5.038l-9.987,0l0,0Z" style="fill:#7adfbb;fill-rule:nonzero;"/><path d="M480.566,56.904c1.68,-17.94 -7.424,-26.954 -22.006,-26.954c-14.139,0 -23.153,9.544 -23.153,22.799c0,13.965 8.924,23.243 23.949,23.243c6.627,0 14.14,-2.297 18.735,-7.07l-6.893,-6.803c-2.474,2.562 -7.689,4.065 -11.665,4.065c-7.602,0 -12.285,-3.889 -12.992,-9.28l34.025,0Zm-33.848,-8.927c1.591,-5.655 6.363,-8.483 12.196,-8.483c6.186,0 10.604,2.828 11.311,8.483l-23.507,0Z" style="fill:#7adfbb;fill-rule:nonzero;"/><path d="M22.227,7.273c-11.328,3.035 -18.028,14.611 -15,25.913l16.15,60.272l40.902,-10.959l-16.15,-60.272c-3.029,-11.303 -14.573,-17.989 -25.902,-14.954l0,0Zm71.386,67.366l-26.364,7.064l-11.095,-41.408c16.182,-2.795 32.097,7.154 36.43,23.327c0.99,3.696 1.333,7.412 1.029,11.017Z" style="fill:#7adfbb;"/></g></svg>
