<?xml version="1.0" encoding="UTF-8" standalone="no"?><!DOCTYPE svg PUBLIC "-//W3C//DTD SVG 1.1//EN" "http://www.w3.org/Graphics/SVG/1.1/DTD/svg11.dtd"><svg width="100%" height="100%" viewBox="0 0 90 90" version="1.1" xmlns="http://www.w3.org/2000/svg" xmlns:xlink="http://www.w3.org/1999/xlink" xml:space="preserve" style="fill-rule:evenodd;clip-rule:evenodd;stroke-linejoin:round;stroke-miterlimit:1.41421;"><path d="M45.011,26.866c0.021,0 10.154,0 16.913,0.524c0.944,0.117 3.004,0.129 4.843,2.181c1.449,1.565 1.921,5.121 1.921,5.121c0,0 0.483,4.173 0.483,8.346l0,3.911c0,4.174 -0.483,8.347 -0.483,8.347c0,0 -0.473,3.554 -1.921,5.116c-1.839,2.053 -3.899,2.065 -4.843,2.186c-6.766,0.518 -16.924,0.536 -16.924,0.536c0,0 -12.57,-0.122 -16.437,-0.518c-1.076,-0.215 -3.489,-0.153 -5.33,-2.205c-1.449,-1.563 -1.921,-5.117 -1.921,-5.117c0,0 -0.483,-4.171 -0.483,-8.346l0,-3.911c0,-4.172 0.483,-8.345 0.483,-8.345c0,0 0.473,-3.556 1.921,-5.121c1.841,-2.052 3.899,-2.064 4.843,-2.181c6.757,-0.524 16.89,-0.524 16.912,-0.524l0.023,0Zm-6.048,9.067l0,18.134l15.112,-9.067l-15.112,-9.067Z" style="fill:#36393e;"/></svg>
