<?xml version="1.0" encoding="UTF-8" standalone="no"?>
<!DOCTYPE svg PUBLIC "-//W3C//DTD SVG 1.1//EN" "http://www.w3.org/Graphics/SVG/1.1/DTD/svg11.dtd">
<svg width="100%" height="100%" viewBox="0 0 90 90" version="1.1" xmlns="http://www.w3.org/2000/svg" xmlns:xlink="http://www.w3.org/1999/xlink" xml:space="preserve" style="fill-rule:evenodd;clip-rule:evenodd;stroke-linejoin:round;stroke-miterlimit:1.41421;">
    <g transform="matrix(1,0,0,1,90.0088,-0.00401624)">
        <g transform="matrix(1,0,0,1,-95.0091,-4.99648)">
            <path d="M70.863,56.988C70.727,58.117 70.1,59.265 68.992,60.433C67.262,62.284 64.839,63.21 61.726,63.21C59.153,63.21 56.884,62.43 54.924,60.866C52.952,59.305 51.973,56.76 51.973,53.239C51.973,49.936 52.861,47.403 54.632,45.641C56.409,43.883 58.708,42.998 61.539,42.998C63.221,42.998 64.734,43.297 66.081,43.893C67.431,44.486 68.542,45.428 69.416,46.713C70.215,47.844 70.727,49.158 70.961,50.653C71.098,51.526 71.152,52.79 71.13,54.436L57.056,54.436C57.141,56.347 57.807,57.686 59.079,58.454C59.849,58.933 60.776,59.173 61.865,59.173C63.012,59.173 63.947,58.88 64.666,58.3C65.061,57.984 65.409,57.549 65.707,56.988L70.863,56.988ZM41.488,36.791C44.675,36.837 46.929,37.753 48.258,39.536C49.056,40.634 49.456,41.943 49.456,43.47C49.456,45.042 49.056,46.31 48.247,47.265C47.795,47.8 47.132,48.291 46.255,48.732C47.587,49.213 48.591,49.971 49.274,51.008C49.95,52.041 50.291,53.301 50.291,54.783C50.291,56.31 49.903,57.681 49.126,58.892C48.632,59.692 48.017,60.37 47.277,60.919C46.443,61.548 45.462,61.978 44.326,62.214C43.191,62.447 41.963,62.56 40.636,62.56L28.866,62.56L28.866,36.791L41.488,36.791ZM40.506,51.215L34.073,51.215L34.073,58.088L40.416,58.088C41.548,58.088 42.433,57.936 43.062,57.635C44.207,57.07 44.778,56.002 44.779,54.419C44.779,53.075 44.228,52.155 43.117,51.653C42.496,51.373 41.624,51.227 40.506,51.215ZM65.886,51.146C65.794,49.823 65.342,48.822 64.542,48.134C63.732,47.449 62.735,47.109 61.542,47.109C60.25,47.109 59.241,47.472 58.527,48.197C57.814,48.923 57.365,49.906 57.18,51.146L65.886,51.146ZM39.759,41.268L34.071,41.268L34.071,46.952L40.424,46.952C41.555,46.952 42.477,46.739 43.188,46.313C43.894,45.887 44.249,45.131 44.249,44.053C44.249,42.848 43.783,42.057 42.848,41.668C42.037,41.403 41.009,41.268 39.759,41.268ZM55.875,37.994L67.068,37.994L67.068,41.201L55.875,41.201L55.875,37.994Z" style="fill:#36393E;"/>
        </g>
    </g>
</svg>
