<?xml version="1.0" encoding="UTF-8" standalone="no"?><!DOCTYPE svg PUBLIC "-//W3C//DTD SVG 1.1//EN" "http://www.w3.org/Graphics/SVG/1.1/DTD/svg11.dtd"><svg width="100%" height="100%" viewBox="0 0 90 90" version="1.1" xmlns="http://www.w3.org/2000/svg" xmlns:xlink="http://www.w3.org/1999/xlink" xml:space="preserve" style="fill-rule:evenodd;clip-rule:evenodd;stroke-linejoin:round;stroke-miterlimit:1.41421;"><path d="M69.496,39.968c-0.33,-1.605 -0.822,-3.189 -1.461,-4.701c-0.625,-1.481 -1.403,-2.91 -2.306,-4.244c-0.89,-1.323 -1.919,-2.571 -3.049,-3.698c-1.132,-1.132 -2.376,-2.159 -3.703,-3.052c-1.334,-0.907 -2.763,-1.678 -4.244,-2.308c-1.512,-0.636 -3.093,-1.129 -4.698,-1.456c-1.647,-0.339 -3.34,-0.512 -5.035,-0.512c-1.695,0 -3.388,0.173 -5.037,0.512c-1.605,0.327 -3.186,0.82 -4.698,1.456c-1.481,0.627 -2.911,1.401 -4.247,2.308c-1.325,0.893 -2.569,1.92 -3.701,3.049c-1.129,1.13 -2.154,2.376 -3.049,3.701c-0.902,1.334 -1.681,2.763 -2.305,4.244c-0.642,1.51 -1.132,3.096 -1.461,4.701c-0.334,1.644 -0.505,3.337 -0.505,5.03c0,1.7 0.171,3.393 0.505,5.039c0.329,1.605 0.822,3.188 1.463,4.696c0.622,1.481 1.401,2.915 2.306,4.252c0.892,1.322 1.919,2.563 3.049,3.698c1.132,1.129 2.373,2.151 3.698,3.049c1.336,0.902 2.766,1.678 4.249,2.303c1.51,0.641 3.093,1.129 4.698,1.456c1.647,0.341 3.34,0.512 5.037,0.512c1.693,0 3.386,-0.171 5.033,-0.512c1.605,-0.327 3.188,-0.815 4.698,-1.456c1.483,-0.625 2.913,-1.401 4.247,-2.303c1.324,-0.898 2.568,-1.92 3.7,-3.049c1.13,-1.135 2.159,-2.376 3.049,-3.698c0.905,-1.337 1.684,-2.771 2.306,-4.252c0.639,-1.508 1.134,-3.091 1.463,-4.696c0.334,-1.646 0.505,-3.339 0.505,-5.039c-0.002,-1.693 -0.173,-3.386 -0.507,-5.03Zm-20.649,8.664c2.954,7.726 4.174,14.178 4.488,16.029c-2.559,1.088 -5.379,1.693 -8.335,1.693c-5.127,0 -9.362,-1.442 -13.038,-4.449l-0.086,-0.074c0,0 4.091,-8.925 16.756,-13.338c0.047,-0.017 0.098,-0.029 0.144,-0.044l0.071,0.183Zm8.086,14.075c-0.219,-1.285 -1.356,-7.554 -4.159,-15.248c6.896,-1.103 12.868,0.788 13.309,0.932c-0.951,5.952 -4.359,11.082 -9.15,14.316Zm-11.289,-21.312c0.59,1.161 1.154,2.341 1.673,3.517c-0.283,0.078 -0.561,0.164 -0.841,0.256c-11.163,3.606 -16.997,13.448 -17.351,14.058l-0.017,0.032c-3.401,-3.786 -5.462,-8.774 -5.462,-14.26c0,-0.225 0.012,-0.449 0.017,-0.674c0.381,0.01 10.928,0.249 21.922,-3.042l0.059,0.113Zm20.703,3.393c-0.308,-0.069 -7.535,-1.625 -14.871,-0.7c-0.153,-0.366 -0.304,-0.732 -0.463,-1.1c-0.444,-1.047 -0.922,-2.081 -1.42,-3.098c8.433,-3.445 11.855,-8.392 11.897,-8.45c2.993,3.637 4.808,8.281 4.857,13.348Zm-30.458,-19.095c0.285,0.378 4.235,5.732 7.93,12.299c-10.252,2.727 -19.153,2.617 -19.714,2.607c1.385,-6.613 5.827,-12.096 11.784,-14.906Zm23.213,3.285c-0.051,0.081 -3.093,4.711 -11.155,7.731c-3.65,-6.706 -7.66,-12.034 -7.979,-12.458c1.614,-0.39 3.298,-0.602 5.032,-0.602c5.406,0 10.343,2.017 14.102,5.329Z" style="fill:#36393e;"/></svg>
