<?xml version="1.0" encoding="UTF-8" standalone="no"?><!DOCTYPE svg PUBLIC "-//W3C//DTD SVG 1.1//EN" "http://www.w3.org/Graphics/SVG/1.1/DTD/svg11.dtd"><svg width="100%" height="100%" viewBox="0 0 480 100" version="1.1" xmlns="http://www.w3.org/2000/svg" xmlns:xlink="http://www.w3.org/1999/xlink" xml:space="preserve" style="fill-rule:evenodd;clip-rule:evenodd;stroke-linejoin:round;stroke-miterlimit:1.41421;"><g><path d="M139.428,56.904c1.68,-17.94 -7.423,-26.954 -22.004,-26.954c-14.141,0 -23.155,9.544 -23.155,22.799c0,13.965 8.927,23.243 23.95,23.243c6.629,0 14.139,-2.297 18.735,-7.07l-6.893,-6.803c-2.475,2.562 -7.688,4.065 -11.666,4.065c-7.599,0 -12.284,-3.889 -12.991,-9.28l34.024,0Zm-33.847,-8.927c1.59,-5.655 6.362,-8.483 12.197,-8.483c6.186,0 10.604,2.828 11.311,8.483l-23.508,0l0,0Z" style="fill:#7adfbb;fill-rule:nonzero;"/><path d="M166.031,46.033l-8.573,-14.759l-12.903,0l0,0.354l14.317,21.121l-15.2,21.829l0,0.266l12.902,0l9.457,-14.582l9.454,14.582l12.905,0l0,-0.266l-15.202,-21.829l14.316,-21.121l0,-0.354l-12.902,0l-8.571,14.759l0,0Z" style="fill:#7adfbb;fill-rule:nonzero;"/><path d="M228.334,35.782c-5.037,-4.418 -10.162,-5.745 -16.968,-5.745c-7.953,0 -18.381,3.537 -18.381,13.611c0,9.898 9.808,12.902 18.028,13.522c6.186,0.353 8.66,1.591 8.66,4.595c0,3.182 -3.799,5.303 -7.866,5.213c-4.859,-0.087 -11.929,-2.651 -15.023,-6.096l-5.302,7.687c6.362,6.629 13.255,7.777 20.148,7.777c12.462,0 18.737,-6.627 18.737,-14.317c0,-11.577 -10.428,-13.432 -18.647,-13.962c-5.569,-0.354 -8.13,-1.944 -8.13,-4.772c0,-2.741 2.827,-4.331 7.953,-4.331c4.154,0 7.689,0.973 10.781,3.888l6.01,-7.07l0,0Z" style="fill:#7adfbb;fill-rule:nonzero;"/><path d="M261.387,65.886c-7.336,0 -12.373,-5.568 -12.373,-12.373c0,-6.804 4.596,-12.372 12.373,-12.372c7.776,0 12.372,5.568 12.372,12.372c0,6.805 -5.037,12.373 -12.372,12.373Zm-13.346,27.572l0,-23.33c3.094,4.772 9.898,6.186 14.495,6.186c13.963,0 22.006,-10.074 22.006,-22.801c0,-12.813 -8.927,-22.8 -22.359,-22.8c-4.951,0 -10.783,2.121 -14.142,6.982l-0.707,-6.011l-10.074,0l0,61.774l10.781,0Z" style="fill:#7adfbb;fill-rule:nonzero;"/><path d="M292.495,12.982l0,61.862l10.782,0l0,-22.271c0,-6.54 4.418,-11.93 10.781,-11.93c5.745,0 9.898,3.359 9.898,11.312l0,22.889l10.783,0l0,-22.978c0,-12.813 -5.481,-21.209 -17.853,-21.209c-4.949,0 -9.721,1.503 -13.609,6.539l0,-24.214l-10.782,0l0,0Z" style="fill:#7adfbb;fill-rule:nonzero;"/><path d="M387.057,56.904c1.678,-17.94 -7.425,-26.954 -22.006,-26.954c-14.141,0 -23.155,9.544 -23.155,22.799c0,13.965 8.926,23.243 23.95,23.243c6.628,0 14.139,-2.297 18.736,-7.07l-6.895,-6.803c-2.474,2.562 -7.687,4.065 -11.665,4.065c-7.6,0 -12.284,-3.889 -12.991,-9.28l34.026,0Zm-33.849,-8.927c1.59,-5.655 6.364,-8.483 12.197,-8.483c6.186,0 10.604,2.828 11.311,8.483l-23.508,0Z" style="fill:#7adfbb;fill-rule:nonzero;"/><path d="M395.364,31.274l0,43.57l10.781,0l0,-22.978c0,-8.041 5.215,-11.046 10.871,-11.046c3.535,0 5.566,0.971 7.776,2.828l4.862,-9.367c-2.387,-2.387 -6.718,-4.155 -11.224,-4.155c-4.419,0 -8.927,0.795 -12.285,6.186l-0.794,-5.038l-9.987,0l0,0Z" style="fill:#7adfbb;fill-rule:nonzero;"/><path d="M476.934,56.904c1.68,-17.94 -7.424,-26.954 -22.006,-26.954c-14.139,0 -23.153,9.544 -23.153,22.799c0,13.965 8.924,23.243 23.949,23.243c6.627,0 14.14,-2.297 18.735,-7.07l-6.893,-6.803c-2.474,2.562 -7.689,4.065 -11.665,4.065c-7.602,0 -12.285,-3.889 -12.992,-9.28l34.025,0Zm-33.848,-8.927c1.591,-5.655 6.363,-8.483 12.196,-8.483c6.186,0 10.604,2.828 11.311,8.483l-23.507,0Z" style="fill:#7adfbb;fill-rule:nonzero;"/><path d="M18.595,7.273c-11.328,3.035 -18.028,14.611 -15,25.913l16.15,60.272l40.902,-10.959l-16.15,-60.272c-3.029,-11.303 -14.573,-17.989 -25.902,-14.954l0,0Zm71.386,67.366l-26.364,7.064l-11.095,-41.408c16.182,-2.795 32.097,7.154 36.43,23.327c0.99,3.696 1.333,7.412 1.029,11.017Z" style="fill:#7adfbb;"/></g></svg>
