<?xml version="1.0" encoding="UTF-8" standalone="no"?>
<!DOCTYPE svg PUBLIC "-//W3C//DTD SVG 1.1//EN" "http://www.w3.org/Graphics/SVG/1.1/DTD/svg11.dtd">
<svg width="100%" height="100%" viewBox="0 0 90 90" version="1.1" xmlns="http://www.w3.org/2000/svg" xmlns:xlink="http://www.w3.org/1999/xlink" xml:space="preserve" style="fill-rule:evenodd;clip-rule:evenodd;stroke-linejoin:round;stroke-miterlimit:1.41421;">
    <path d="M45.465,60.872L45.465,60.872C45.017,60.872 44.569,60.847 44.124,60.794C44.033,60.913 43.937,61.031 43.837,61.144C42.76,62.361 41.272,63.088 39.648,63.188C39.54,63.196 39.402,63.2 39.267,63.2C36.087,63.2 33.419,60.708 33.194,57.529C33.192,57.488 33.191,57.445 33.187,57.403C33.136,56.382 33.067,54.395 33.191,52.155C33.274,50.695 33.311,48.237 33.312,48.149C33.312,48.142 33.312,48.138 33.312,48.131C33.334,46.624 33.913,45.245 34.85,44.188C34.386,42.57 34.235,40.641 34.525,38.369L34.569,38.013C34.733,36.667 34.978,34.673 35.991,32.754C37.523,29.856 40.331,28.193 43.694,28.193C43.887,28.193 44.088,28.199 44.292,28.211C44.594,28.227 44.923,28.263 45.275,28.325C46.35,27.377 47.762,26.8 49.303,26.8C49.323,26.8 49.345,26.8 49.365,26.8C52.7,26.841 55.402,29.585 55.385,32.917C55.385,32.94 55.385,32.963 55.385,32.985C55.384,33.059 55.08,41.577 54.988,42.182C54.981,42.224 54.974,42.266 54.967,42.307C54.887,42.76 54.756,43.194 54.584,43.603C56.056,45.334 56.852,47.484 56.878,49.914C56.91,52.969 55.512,55.936 53.041,58.053C50.92,59.872 48.229,60.872 45.465,60.872ZM43.83,43.737C42.297,43.497 41.485,42.476 41.888,39.303L41.937,38.919C42.277,36.159 42.569,35.555 43.885,35.623C44.279,35.648 44.726,35.892 45.176,36.259C45.582,36.737 46.511,37.358 47.022,38.592C47.397,39.491 47.525,40.077 47.572,40.709C47.576,40.729 47.661,41.483 47.661,41.483L47.662,41.483C47.763,42.011 48.178,42.446 48.738,42.547C49.462,42.677 50.158,42.195 50.289,41.469C50.3,41.386 50.63,33.034 50.632,32.895C50.636,32.16 50.043,31.561 49.307,31.553C48.565,31.552 47.965,32.146 47.961,32.885C47.961,32.901 47.955,34.047 47.934,35.212C46.887,34.067 45.536,33.041 44.033,32.957C39.988,32.735 39.549,36.45 39.286,38.593L39.239,38.97C38.701,43.193 40.109,45.862 43.42,46.379C47.022,46.947 49.428,47.775 49.451,49.991C49.46,50.847 49.01,51.731 48.215,52.413C47.267,53.226 45.985,53.589 44.791,53.388C44.42,53.328 44.067,53.234 43.736,53.116C43.257,52.856 42.071,52.135 41.469,51.3C40.959,50.595 40.786,49.486 40.73,48.786C40.737,48.474 40.74,48.265 40.741,48.236C40.75,47.502 40.162,46.898 39.423,46.884C38.686,46.87 38.075,47.459 38.065,48.201C38.065,48.226 38.025,50.84 37.938,52.416C37.798,54.953 37.934,57.105 37.938,57.196C37.989,57.934 38.621,58.494 39.358,58.445C40.098,58.399 40.653,57.762 40.608,57.028C40.608,57.008 40.54,55.974 40.55,54.528C41.526,55.156 42.806,55.765 44.351,56.026C46.343,56.359 48.385,55.784 49.951,54.442C51.349,53.246 52.143,51.612 52.126,49.963C52.072,45.027 46.51,44.159 43.83,43.737Z" style="fill:#36393E;"/>
</svg>
